<svg width="59" height="64" viewBox="0 0 59 64" fill="none" xmlns="http://www.w3.org/2000/svg">
<path d="M10.8106 0.114062C4.7571 1.08853 0.398187 6.31711 1.1229 11.7448C1.2721 12.8659 1.81563 14.4796 2.31654 15.3283C2.88138 16.2818 4.12831 17.4344 5.13012 17.9374C6.76071 18.7651 8.08224 19.069 10.0645 19.069C10.8319 19.069 11.4713 19.0899 11.4713 19.1214C11.4713 19.2471 10.5761 20.735 9.45706 22.4849C7.0911 26.1522 6.3877 27.462 5.68431 29.5052C4.9596 31.5799 4.81039 32.5334 4.82105 35.0062C4.82105 36.9656 4.84236 37.3219 5.06617 38.202C6.32376 43.1687 9.7981 46.616 14.2849 47.3285C15.0736 47.4438 17.4715 47.4123 18.1109 47.2552C18.388 47.1923 18.3987 47.2028 18.3987 47.5695V47.9467H30.431C41.7919 47.9467 42.4633 47.9362 42.5379 47.7581C42.8577 46.9827 42.7724 46.4693 42.2076 45.8616C41.8132 45.4215 40.8434 44.9185 39.9055 44.6461L39.2981 44.4784L39.7883 43.7764C40.7581 42.3933 41.3123 40.7273 41.3123 39.2184V38.4116H41.8239C42.5806 38.4116 43.8382 38.0658 44.7867 37.5943C45.6286 37.1752 46.364 36.6827 47.6109 35.6978C47.9839 35.4044 48.325 35.1634 48.3782 35.1634C48.4315 35.1634 48.8791 35.4044 49.3587 35.6873C50.7655 36.5255 51.3943 36.6722 52.3322 36.3998C53.0036 36.2007 53.8349 35.352 54.0374 34.6395L54.2079 34.0632L54.6662 34.0946C56.1689 34.1889 56.9469 32.3867 56.1049 30.7626C55.8705 30.3225 55.4975 29.8719 54.9752 29.3899C54.3145 28.7822 54.2186 28.6565 54.3891 28.6041C55.3163 28.2793 57.1813 27.5144 57.8314 27.2C58.9931 26.6237 59.0464 26.5399 58.9611 25.5549C58.7054 22.6525 58.2791 20.976 57.1387 18.346C55.668 14.9825 54.9539 14.0395 52.9823 12.8974C52.0231 12.342 48.9857 10.8122 48.2184 10.5084C47.3658 10.1626 45.8951 7.49066 45.8951 6.29616C45.8951 6.0342 46.0123 5.5103 46.1615 5.13308C46.3107 4.74539 46.4173 4.41009 46.396 4.39962C46.3214 4.31579 44.9465 5.34265 44.3071 5.96086C42.7085 7.50114 41.8772 9.2929 41.7919 11.3571L41.7493 12.342L41.1311 12.9812C39.9695 14.1862 39.0529 15.5169 38.7545 16.4495C38.6373 16.8162 38.5414 16.8895 37.7527 17.2563C37.2625 17.4763 36.5484 17.7068 36.1328 17.7802C35.44 17.885 35.2695 17.864 33.2446 17.4658C32.0616 17.2248 30.5056 16.9419 29.8022 16.8267C28.2782 16.5857 25.422 16.3656 25.1023 16.4599C24.9211 16.5228 24.8891 16.5019 24.9424 16.3342C25.5179 14.532 25.7097 12.0277 25.39 10.2778C24.4628 5.10165 20.6687 1.29809 15.3613 0.218843C14.1783 -0.0221537 11.9616 -0.0745443 10.8106 0.114062ZM14.5194 1.01518C18.9103 1.61243 22.4912 4.45201 23.9726 8.51752C24.8039 10.7913 24.8358 13.7566 24.0578 16.0094L23.866 16.5542L23.1839 16.68C20.2638 17.2144 16.5976 20.0435 14.1677 23.6375C13.1659 25.1044 12.6117 26.3827 12.2493 28.0383C11.9509 29.3899 11.9829 32.942 12.3026 34.3566C12.7715 36.4522 13.5176 38.2544 14.5407 39.7738C15.6917 41.4922 18.1856 44.0908 19.5604 45.0128L20.2531 45.4634L19.7522 45.5891C19.4751 45.6625 19.1554 45.7987 19.0488 45.893C18.7717 46.1445 18.0044 46.354 16.896 46.4902C15.2121 46.6893 13.2831 46.3331 11.5992 45.4948C8.81761 44.1117 6.62217 41.1045 5.94009 37.7096C5.26866 34.388 5.78022 31.0979 7.5174 27.5668C8.08224 26.4037 8.49788 25.7226 11.0131 21.7514C13.8053 17.3611 14.7538 13.7671 13.9332 10.6236C13.6455 9.54438 13.4536 9.17764 13.1339 9.17764C12.6543 9.17764 12.5797 9.42912 12.8355 10.2045C13.2192 11.3676 13.3151 12.0696 13.2405 13.3689C13.1765 14.6891 12.9314 15.7893 12.4198 17.1096L12.0788 17.9688L11.5886 18.0526C10.6081 18.2203 8.39131 18.126 7.47477 17.8954C5.28998 17.3191 3.80859 16.1875 2.92401 14.4167C2.28456 13.1489 2.10339 12.4468 2.01813 11.0113C1.9755 10.1312 1.99681 9.63868 2.13536 8.96808C2.98796 4.81874 6.77137 1.52861 11.3115 0.973268C12.0149 0.878965 13.7414 0.910399 14.5194 1.01518ZM45.1277 7.34397C45.3835 8.33939 46.8223 10.8437 47.2805 11.0637C47.3658 11.1161 48.4742 11.6505 49.7318 12.2582C52.4707 13.5785 53.8029 14.3957 54.3678 15.1083C54.8793 15.7684 56.2861 18.608 56.9042 20.2321C57.4584 21.678 57.6503 22.4953 57.9061 24.5176L58.0872 25.9636L57.8314 26.1522C57.5437 26.3618 55.1031 27.3991 54.1333 27.7134C53.27 27.9964 51.6821 28.2478 50.7122 28.2478C49.8277 28.2478 48.2823 28.0907 47.3338 27.9021C46.6944 27.7763 46.6944 27.7763 46.5025 27.2524C46.364 26.8542 46.332 26.5294 46.3746 25.8798C46.4279 24.9996 46.3533 24.79 45.9803 24.79C45.8737 24.79 45.7032 24.9158 45.6073 25.073C45.3728 25.4187 45.3515 26.9485 45.5753 27.462C45.6393 27.6296 45.7458 28.0697 45.7885 28.426C45.9483 29.6519 46.6304 30.3958 47.8667 30.6997C48.2184 30.7835 49.1882 30.8988 50.0195 30.9617C51.0533 31.0245 51.6501 31.1188 51.9165 31.2446C52.9823 31.737 53.5898 33.665 53.0036 34.6919C52.6732 35.2682 52.1617 35.5825 51.5542 35.5825C51.1492 35.5825 50.8721 35.4777 50.1048 35.0377C48.8152 34.3147 48.3996 34.168 47.9946 34.3356C47.8241 34.409 47.1846 34.849 46.5665 35.3206C44.3923 36.9971 43.2413 37.4686 41.3869 37.4686C38.8078 37.4686 37.1026 36.5255 36.687 34.891C36.0155 32.2819 33.7881 29.7881 31.1238 28.6774C30.2285 28.3107 29.7703 28.185 28.7578 28.0383C27.8732 27.9125 27.5642 28.0068 27.5642 28.3945C27.5642 28.7508 27.724 28.8241 28.7045 28.9708C31.4541 29.369 33.8308 31.0455 35.131 33.4974C36.6657 36.3998 36.1008 40.0567 33.6922 42.8543C32.8503 43.8288 31.8698 44.4994 30.2818 45.191L28.907 45.7987L31.0278 45.8616C33.2233 45.9349 33.9587 46.0502 34.7899 46.4693C35.0137 46.5845 35.2589 46.7522 35.3335 46.836C35.4614 46.9932 34.7366 47.0037 27.4149 47.0037C22.9814 47.0037 19.3579 46.9722 19.3579 46.9198C19.3579 46.7836 20.1892 46.375 20.4769 46.375C20.9565 46.375 21.4787 46.1026 21.5533 45.8092C21.6492 45.4005 21.3935 45.0967 20.3384 44.4051C19.1447 43.6088 18.015 42.5714 16.7681 41.1045C15.4999 39.6166 14.9883 38.8622 14.3382 37.5315C12.8461 34.4404 12.4944 30.3225 13.4536 27.0848C14.0398 25.1149 15.9155 22.4953 18.1856 20.4731C22.0116 17.0677 24.7612 16.6695 32.9462 18.3355C35.099 18.7756 36.0475 18.8175 37.1133 18.4927C38.5414 18.0631 39.4473 17.5078 39.5538 17.0048C39.7457 16.1665 40.6622 14.8044 42.0264 13.3689L42.7617 12.583L42.7191 11.8496C42.6658 10.8541 42.9216 9.7225 43.4332 8.70612C43.8914 7.80501 44.808 6.58954 44.9252 6.73624C44.9679 6.77815 45.0638 7.05058 45.1277 7.34397ZM47.8134 28.9184C49.1349 29.128 50.8295 29.2118 51.81 29.107C52.5986 29.0127 52.7052 29.0337 53.2168 29.2642C54.922 30.0396 56.073 32.0723 55.2843 32.9001C55.1351 33.0573 54.9113 33.1725 54.7408 33.1725C54.4317 33.1725 53.9947 32.8373 53.9947 32.5858C53.9947 32.3238 53.4619 31.3598 53.0995 30.9931C52.4494 30.3015 51.9698 30.1548 49.9662 30.0291C48.1971 29.9139 47.7281 29.8091 47.2805 29.4423C46.9501 29.1594 46.673 28.7717 46.8223 28.7717C46.8649 28.7717 47.3125 28.8451 47.8134 28.9184ZM38.7226 38.003C39.0956 38.1182 39.6178 38.2544 39.9055 38.2859C40.3958 38.3592 40.4064 38.3697 40.4384 38.7469C40.4917 39.3756 40.1613 40.9997 39.8096 41.8275C39.4153 42.76 38.648 43.8498 37.9232 44.5099L37.3797 45.0128L37.6675 45.0757C39.9375 45.5577 41.2164 46.0292 41.632 46.5531C41.7493 46.6998 41.8452 46.8675 41.8452 46.9094C41.8452 46.9618 40.6516 47.0037 39.1808 47.0037H36.5271L36.3672 46.7103C35.9623 45.9454 34.9285 45.3691 33.511 45.1071L32.8396 44.9814L33.9054 43.9231C35.1736 42.6657 35.845 41.6179 36.3779 40.0776C36.591 39.4699 36.8042 38.6002 36.8681 38.0449L36.9854 37.0704L37.5183 37.4267C37.8167 37.6258 38.3602 37.8772 38.7226 38.003Z" fill="white"/>
<path d="M44.1259 8.49656C44.0193 8.75852 44.1792 9.50246 44.4562 10.0892C44.7653 10.7703 45.5966 11.5876 45.9589 11.5876C46.3639 11.5876 46.268 11.3047 45.6925 10.7913C45.085 10.2464 44.7653 9.65964 44.6587 8.88426C44.6055 8.44417 44.5522 8.33939 44.3816 8.33939C44.2751 8.33939 44.1578 8.41274 44.1259 8.49656Z" fill="white"/>
<path d="M8.92222 54.4905C9.05073 55.5427 8.92222 56.4633 8.55505 57.29C8.40818 57.5906 8.24296 57.8724 8.05937 58.1166C8.09609 58.0603 8.11445 57.9851 8.11445 57.8912C8.11445 57.816 8.11445 57.7409 8.09609 57.6657C8.07773 57.5906 8.07773 57.5342 8.07773 57.4778C8.07773 57.4215 8.09609 57.3839 8.11445 57.3839H8.09609C8.09609 57.3088 8.09609 57.2524 8.07773 57.196C8.07773 57.1209 8.09609 57.0645 8.15117 56.9894C8.07773 56.9706 8.05937 56.933 8.07773 56.8954C8.07773 56.839 8.07773 56.8203 8.05937 56.8015V58.1166C7.74728 58.5488 7.38011 58.8682 6.95786 59.1124H6.93951C6.33368 59.4506 5.65441 59.7136 4.97515 59.9015C4.69977 59.9955 4.42439 60.0518 4.1123 60.1082C4.05722 60.127 4.00215 60.127 3.94707 60.1458C3.892 60.1458 3.85528 60.1646 3.80021 60.1646H3.78185C3.78185 60.127 3.76349 60.127 3.74513 60.127C3.69006 60.127 3.65334 60.1458 3.65334 60.1834C3.65334 60.2021 3.65334 60.2021 3.6717 60.2021L3.10258 60.2773L2.99243 63.6216C2.99243 63.8846 2.86392 63.9974 2.62526 63.9974H0.36717C0.146868 63.9974 0 63.8283 0 63.6028L0.0734339 62.1937L0.110151 62.2313C0.183585 62.2125 0.220302 62.1749 0.293736 62.1185L0.23866 62.081H0.146868L0.0734339 62.1373L0.110151 61.1416H0.165226C0.165226 61.1228 0.146868 61.104 0.128509 61.104L0.110151 61.0852L0.514037 52.1984C0.532396 52.0105 0.624188 51.8977 0.807773 51.8602C3.74513 51.2402 4.18573 51.1462 4.62634 51.0899C4.79156 51.0711 4.95679 51.0711 5.12202 51.0335L5.61769 51.0147H5.63605C7.61877 51.1086 8.70192 52.5553 8.92222 54.4905ZM1.11987 52.9687V53.025H1.15658V52.9687H1.11987ZM3.24945 57.2712C3.41468 57.2524 3.92872 57.1772 4.13066 57.1209C4.58962 56.9706 5.10366 56.7639 5.48919 56.4257C5.72785 56.219 5.87471 55.956 5.94815 55.6366C6.0583 54.9039 5.72785 53.7954 4.88336 53.9645L3.43304 54.2651L3.24945 57.2712ZM7.08637 54.096V54.0584H7.01294V54.096H7.08637ZM6.02158 54.2087C6.00322 54.2275 6.00322 54.2651 6.02158 54.2651C6.0583 54.3214 6.11337 54.3026 6.11337 54.2651C6.11337 54.2651 6.13173 54.2463 6.15009 54.2463L6.02158 54.2087ZM0.899566 54.3026V54.3966H0.936283V54.3026H0.899566ZM6.51726 54.3402V54.3966H6.57234V54.3402H6.51726ZM6.68249 55.0166C6.68249 54.979 6.64577 54.9039 6.53562 54.8475V55.073C6.57234 55.073 6.62741 55.0542 6.68249 55.0166ZM6.7192 55.3924C6.75592 55.3548 6.79264 55.3172 6.79264 55.2984C6.79264 55.2796 6.77428 55.2421 6.75592 55.2045C6.7192 55.2421 6.68249 55.2608 6.68249 55.2608C6.68249 55.2608 6.66413 55.2608 6.66413 55.2796H6.64577C6.60905 55.2984 6.57234 55.3172 6.53562 55.3548L6.7192 55.3924ZM6.93951 55.4863L7.01294 55.5427C6.97622 55.4675 6.95786 55.4111 6.93951 55.4111L6.90279 55.3924L6.86607 55.4111C6.86607 55.4487 6.88443 55.4863 6.93951 55.4863ZM6.22352 55.7305V55.8245H6.35203C6.35203 55.8057 6.35203 55.7681 6.33368 55.7493C6.31532 55.7493 6.31532 55.7305 6.29696 55.7305H6.22352ZM6.18681 56.0312L6.31532 56.0499C6.35203 56.0124 6.38875 55.9748 6.38875 55.9184C6.35203 55.9184 6.31532 55.9184 6.29696 55.8996L6.22352 55.956C6.18681 55.9936 6.16845 56.0124 6.18681 56.0312ZM6.53562 56.0124C6.62741 56.0124 6.68249 55.9748 6.68249 55.9184H6.53562V56.0124ZM8.11445 56.2566C8.13281 56.2378 8.13281 56.219 8.13281 56.2003C8.13281 56.1627 8.11445 56.1063 8.05937 56.0312C8.04101 56.0499 8.04101 56.0875 8.05937 56.1063C8.05937 56.1439 8.05937 56.1627 8.04101 56.1815H7.91251C7.93086 56.219 7.91251 56.2378 7.87579 56.2378C7.89415 56.2566 7.93086 56.2566 7.98594 56.2754C7.98594 56.2754 8.02266 56.2942 8.07773 56.2942C8.07773 56.2942 8.07773 56.2754 8.11445 56.2566ZM6.42547 56.1815C6.51726 56.219 6.60905 56.2378 6.68249 56.2378C6.60905 56.1815 6.57234 56.1627 6.57234 56.1439C6.51726 56.1439 6.48054 56.1439 6.46219 56.1627L6.42547 56.1815ZM6.57234 56.3693L6.60905 56.3318L6.53562 56.2566L6.46219 56.2942L6.57234 56.3693ZM8.09609 56.7639V56.3318H8.04101V56.7639H8.09609ZM5.98486 56.7075L6.18681 56.8578C6.13173 56.7827 6.0583 56.7263 5.98486 56.7075ZM6.51726 57.6094V57.5718H6.33368V57.6094H6.51726ZM5.89307 57.7221L5.85636 57.8348L6.02158 57.816C6.02158 57.7597 5.94815 57.7221 5.89307 57.7221ZM5.67277 57.7785H5.56262V57.816H5.67277V57.7785ZM1.4136 58.0979H1.5054C1.48704 58.0603 1.45032 58.0227 1.4136 58.0039C1.37689 57.9851 1.35853 57.9476 1.35853 57.9288C1.34017 57.9476 1.28509 57.9851 1.24838 57.9851C1.24838 58.0039 1.23002 58.0039 1.21166 58.0039C1.30345 58.0227 1.37689 58.0603 1.4136 58.0979ZM5.7462 58.0791V57.9851L5.59934 57.9476C5.58098 57.9663 5.56262 57.9663 5.56262 57.9851H5.54426C5.50754 58.0039 5.50754 58.0227 5.50754 58.0415C5.50754 58.0791 5.50754 58.0979 5.5259 58.0979H5.54426C5.56262 58.1166 5.59934 58.1354 5.63605 58.1354C5.69113 58.1354 5.72785 58.1167 5.7462 58.0791ZM1.08315 57.9851V58.0227C1.08315 58.0415 1.10151 58.0603 1.11987 58.0979L1.15658 58.0415C1.17494 58.0227 1.17494 58.0039 1.17494 57.9851H1.08315ZM3.76349 58.1166H3.81856V58.0227H3.76349V58.1166ZM1.13823 58.3045C1.17494 58.3233 1.1933 58.3233 1.21166 58.3233C1.24838 58.3233 1.28509 58.3233 1.34017 58.3045C1.39524 58.2857 1.43196 58.267 1.46868 58.267C1.45032 58.2482 1.4136 58.2294 1.37689 58.1918C1.34017 58.173 1.32181 58.1542 1.28509 58.1542C1.24838 58.1542 1.21166 58.173 1.17494 58.1918C1.13823 58.2294 1.10151 58.2482 1.08315 58.267C1.13823 58.2857 1.15658 58.3045 1.13823 58.3045ZM6.03994 58.2857L6.07666 58.2106L6.00322 58.173L5.96651 58.267L6.03994 58.2857ZM4.80992 58.4548C4.75485 58.4548 4.69977 58.5112 4.69977 58.5488C4.73649 58.5488 4.7732 58.5676 4.82828 58.5676V58.6615H4.93843C4.95679 58.6615 4.99351 58.6427 4.99351 58.6427C4.95679 58.6051 4.865 58.5676 4.82828 58.5676C4.82828 58.5488 4.84664 58.53 4.84664 58.5112C4.84664 58.4924 4.82828 58.4736 4.80992 58.4548ZM5.34232 58.5676H5.48919C5.48919 58.5488 5.48919 58.5488 5.47083 58.5488V58.5112C5.45247 58.5112 5.45247 58.4924 5.45247 58.4924L5.34232 58.5676ZM1.11987 58.6615H1.15658L1.10151 58.5112H1.06479L1.11987 58.6615ZM5.15873 58.6991C5.19545 58.6615 5.19545 58.5864 5.15873 58.5488H5.03022C5.06694 58.6239 5.10366 58.6803 5.15873 58.6991ZM1.10151 58.7742L1.15658 58.6991H1.11987L1.06479 58.7555L1.10151 58.7742ZM3.98379 58.8306L4.13066 58.8118L3.98379 58.6991V58.8306ZM1.68898 58.8118V58.7179H1.57883V58.8118H1.68898ZM4.99351 58.793C4.92007 58.8306 4.865 58.887 4.82828 58.9433H4.97515L5.25053 58.9997V58.9621L5.23217 58.9433C5.21381 58.9245 5.21381 58.9245 5.21381 58.9058H5.19545L5.17709 58.9245L5.10366 58.9433H5.03022L4.99351 58.793ZM5.37903 59.0936C5.37903 59.0373 5.34232 58.9997 5.28724 58.9621C5.25053 59.0185 5.25053 59.0748 5.26888 59.1124H5.34232C5.36068 59.1124 5.36068 59.0936 5.37903 59.0936ZM4.92007 59.3003C4.95679 59.3003 4.99351 59.3191 5.01187 59.3379C5.06694 59.2627 5.10366 59.2252 5.10366 59.1876C5.10366 59.1688 5.10366 59.15 5.0853 59.1124C5.06694 59.1124 5.04858 59.0748 5.03022 59.0561C5.01187 59.0561 5.01187 59.0748 4.99351 59.0748H4.97515C4.95679 59.0748 4.95679 59.0936 4.95679 59.0936C4.95679 59.0936 4.93843 59.0936 4.92007 59.1124V59.3003ZM0.862849 59.1312C0.84449 59.15 0.84449 59.15 0.84449 59.1688H0.936283C0.936283 59.1688 0.936283 59.15 0.917924 59.1312C0.881207 59.1124 0.881207 59.0936 0.862849 59.0748V59.1312ZM5.63605 59.2627V59.2064L5.48919 59.2439V59.3003L5.63605 59.2627ZM3.74513 59.507L3.85528 59.413L3.74513 59.3191C3.72677 59.3379 3.65334 59.413 3.65334 59.4506L3.74513 59.507ZM5.15873 59.3942C5.15873 59.4318 5.19545 59.4506 5.25053 59.4506H5.28724C5.3056 59.4318 5.3056 59.413 5.3056 59.3755V59.3191C5.21381 59.3191 5.15873 59.3379 5.15873 59.3942ZM1.30345 59.413L1.43196 59.3755L1.4136 59.3379L1.30345 59.3755V59.413ZM5.37903 59.5821C5.39739 59.5446 5.39739 59.507 5.37903 59.4882C5.32396 59.507 5.28724 59.5258 5.28724 59.5821H5.37903ZM5.06694 59.6197H5.21381C5.21381 59.6009 5.19545 59.5633 5.15873 59.5446C5.10366 59.5446 5.06694 59.5821 5.06694 59.6197ZM1.02807 59.77V59.6573H0.991358V59.77H1.02807ZM3.70841 59.9391V59.864H3.59826V59.9391H3.70841ZM1.00972 63.6404V59.8827C0.991358 59.9767 0.954641 60.0518 0.936283 60.127C0.917924 60.2209 0.881207 60.2961 0.881207 60.3524C0.881207 60.3712 0.881207 60.39 0.899566 60.4088C0.917924 60.4276 0.936283 60.4464 0.917924 60.4652C0.84449 60.484 0.84449 60.5403 0.862849 60.5779C0.881207 60.6531 0.881207 60.7094 0.862849 60.7282C0.84449 60.7282 0.84449 60.747 0.826132 60.7658C0.826132 60.7658 0.807773 60.7658 0.807773 60.7846C0.771056 60.8034 0.771056 60.8221 0.771056 60.8409C0.771056 60.8597 0.771056 60.8785 0.789415 60.8973C0.789415 60.9161 0.826132 60.9349 0.771056 60.9725C0.752698 60.9912 0.752698 60.9913 0.734339 60.9913H0.715981C0.752698 61.0476 0.771056 61.0852 0.752698 61.1416C0.715981 61.2355 0.679264 61.367 0.715981 61.4234C0.734339 61.4797 0.715981 61.5173 0.697622 61.5173C0.624188 61.7052 0.660905 61.8179 0.679264 61.9307C0.642547 61.9494 0.624188 61.9682 0.60583 62.0058C0.550754 62.0622 0.532396 62.0998 0.532396 62.0998V62.1561C0.532396 62.3064 0.532396 62.4192 0.514037 62.5131C0.47732 62.6446 0.477321 62.7573 0.458962 62.8701C0.458962 62.9076 0.458962 62.9264 0.440604 62.964C0.422245 62.9828 0.403887 63.0204 0.403887 63.0392C0.403887 63.0955 0.422245 63.4713 0.514037 63.5652C0.569113 63.584 0.660905 63.6028 0.771056 63.6028C0.826132 63.6028 0.917924 63.6216 1.00972 63.6404ZM0.23866 60.484V60.5403H0.348811V60.484H0.23866ZM0.348811 60.8597C0.293736 60.8034 0.183585 60.8034 0.183585 60.8597L0.23866 60.9161C0.275377 60.9161 0.312094 60.8973 0.348811 60.8597ZM0.330453 61.0852C0.348811 61.0852 0.36717 61.0664 0.36717 61.0476C0.312094 61.0288 0.220302 61.0288 0.183585 61.0476L0.275377 61.104C0.293736 61.0852 0.330453 61.0852 0.330453 61.0852ZM0.201943 61.2355H0.330453C0.275377 61.1979 0.23866 61.1603 0.23866 61.1228C0.23866 61.1228 0.220302 61.1416 0.220302 61.1791C0.220302 61.1979 0.220302 61.2167 0.201943 61.2355ZM2.00107 61.5549V61.3482L1.96436 61.4046C1.96436 61.4609 1.98272 61.5173 2.00107 61.5549ZM0.23866 61.6676V61.6113H0.146868V61.6676H0.23866ZM1.98272 62.2501L2.00107 61.6113L1.96436 61.7991C1.946 61.8179 1.946 61.8555 1.946 61.8555C1.946 61.8743 1.946 61.8931 1.92764 61.8931C1.96436 61.9682 1.96436 61.987 1.946 61.987C1.92764 61.9682 1.90928 61.987 1.90928 62.0058C1.90928 62.1185 1.90928 62.1185 1.98272 62.2501ZM0.0734339 62.4379L0.146868 62.4192L0.128509 62.4004L0.0734339 62.4192V62.4379ZM2.62526 63.9598H2.66198L2.64362 63.9034H2.6069L2.62526 63.9598Z" fill="white"/>
<path d="M18.3076 50.902C18.5462 50.902 18.7115 51.0711 18.7115 51.2965L18.6564 53.5323C18.638 53.7578 18.5279 53.8893 18.3076 53.9081L13.259 54.4529L13.1305 56.0124L16.9123 55.8057V57.6469H16.9858V55.8057C17.1877 55.8057 17.3713 55.9748 17.3713 56.1815V58.1354C17.3713 58.3421 17.2611 58.4736 17.0592 58.5112L13.0387 59.0561L12.9469 60.6155L17.8486 60.4652C18.0689 60.4652 18.2341 60.6343 18.2341 60.8409V63.2083C18.2341 63.4337 18.124 63.5652 17.8853 63.584L10.1564 63.9974C9.9361 63.9974 9.77087 63.8471 9.77087 63.6028C9.78923 61.7616 9.8443 59.8264 9.9361 57.816C10.0279 55.7305 10.1931 53.6638 10.3951 51.5971C10.4318 51.3717 10.5419 51.259 10.7622 51.259L18.3076 50.902ZM13.0754 51.259V51.3153H13.1121V51.259H13.0754ZM14.2687 51.428C14.232 51.4468 14.2503 51.4656 14.3054 51.4656C14.2871 51.4656 14.2687 51.4468 14.2687 51.428ZM14.6175 51.7474C14.6542 51.7099 14.6542 51.6911 14.6542 51.6723C14.6542 51.6347 14.6175 51.5971 14.5441 51.5971C14.4706 51.5971 14.4156 51.6159 14.3788 51.6723C14.3605 51.7099 14.3421 51.7287 14.3238 51.7474C14.3605 51.7287 14.3788 51.6911 14.3788 51.6723C14.3972 51.6723 14.4339 51.6535 14.4706 51.6535C14.5441 51.6723 14.5808 51.7099 14.5808 51.7474V51.8226C14.5808 51.785 14.5992 51.7662 14.6175 51.7474ZM17.3713 51.6723V51.6159H17.3346V51.6723H17.3713ZM12.1575 51.6723V51.7287H12.543V51.6723H12.1575ZM13.4793 51.7287V51.6723H13.2223V51.6911H13.1855C13.1305 51.7099 13.0938 51.7287 13.0938 51.7474H13.2223L13.2406 51.7287H13.4793ZM12.8735 51.7099V51.7474H12.9285V51.7099H12.8735ZM15.921 51.8226V51.7474H15.7741V51.8226H15.921ZM13.7363 51.8226C13.7179 51.8226 13.6996 51.8414 13.6996 51.9165C13.6996 51.8978 13.7363 51.879 13.773 51.8414C13.8097 51.8038 13.7914 51.8038 13.7363 51.8226ZM14.948 51.9165V51.879H14.8745V51.9165H14.948ZM12.1575 52.2172L11.9922 52.1984C11.9922 52.2171 11.9922 52.2359 12.0106 52.2735V52.3111H12.084C12.084 52.2923 12.1024 52.2735 12.1208 52.2547C12.1391 52.2359 12.1575 52.2359 12.1575 52.2172ZM14.232 52.4614C14.1769 52.4426 14.1402 52.4238 14.1402 52.3862V52.3675L14.232 52.2735C14.2136 52.2923 14.1769 52.3111 14.1585 52.3111H14.1218C14.1035 52.3111 14.1035 52.3299 14.0668 52.3299H14.03C13.975 52.3487 13.9199 52.405 13.8832 52.4802L13.9199 52.5178H14.1402C14.1769 52.5178 14.1769 52.499 14.1769 52.499H14.1953L14.232 52.4614ZM14.8562 52.4802V52.5178H14.8745L14.8929 52.5366L14.9112 52.4802H14.8562ZM13.6996 52.6493H13.8097L13.773 52.5366C13.6812 52.5741 13.6262 52.6117 13.6262 52.6493C13.6629 52.6681 13.6812 52.6681 13.6996 52.6493ZM14.4706 52.7996H14.6175C14.6175 52.7808 14.5992 52.7432 14.5257 52.6869L14.4706 52.7996ZM15.1499 52.8372L15.3702 52.8184C15.3702 52.7996 15.3518 52.7808 15.3335 52.762L15.2968 52.7244C15.205 52.762 15.1499 52.7996 15.1499 52.8372ZM14.0851 52.8935L14.1402 52.8372C14.0668 52.7996 14.0117 52.7808 13.975 52.7808C13.9199 52.7808 13.8832 52.7996 13.8832 52.8747L13.975 52.9311L14.03 52.9499H14.0484C14.0668 52.9499 14.0851 52.9123 14.0851 52.8935ZM14.8562 52.9875C14.8745 53.0063 14.9112 53.0063 14.948 52.9875C14.948 52.9311 14.9296 52.8747 14.8745 52.8559C14.8378 52.8747 14.8195 52.8747 14.8011 52.8747C14.7827 52.8747 14.7644 52.8747 14.7277 52.8935L14.7644 52.9875H14.8562ZM10.9825 52.9687L11.0009 52.9311H10.9825L10.9458 52.9499L10.9825 52.9687ZM14.4156 53.1002C14.4523 53.1002 14.4706 53.0814 14.4706 53.025C14.4706 52.9875 14.4523 52.9499 14.3788 52.9499C14.3605 52.9499 14.3605 52.9687 14.3421 52.9687H14.3238L14.3054 52.9875C14.2871 53.0063 14.2687 53.025 14.2687 53.0626C14.2687 53.0814 14.2871 53.1002 14.2871 53.1002H14.4156ZM17.151 53.0626V52.9687H17.1143V53.0626H17.151ZM14.3788 53.9457V53.8893H14.3421V53.9457H14.3788ZM12.8918 53.9457C12.8735 53.9457 12.8551 53.9645 12.8551 54.002H12.8918L12.9102 53.9832C12.8918 53.9832 12.8918 53.9645 12.8918 53.9457ZM12.7817 54.8663C12.7633 54.8851 12.7449 54.8851 12.7449 54.9039L12.8367 54.9227C12.8551 54.9039 12.8551 54.8851 12.8367 54.8287C12.8184 54.8287 12.8 54.8475 12.7817 54.8663ZM12.8 55.2233L12.8735 55.2421L12.8918 55.2233L12.8 55.2045V55.2233ZM12.9836 55.8996V55.9936H13.0754V55.8996H12.9836ZM13.0387 56.2378C13.0203 56.2378 12.9836 56.2378 12.9652 56.219C12.9469 56.219 12.9285 56.2003 12.8918 56.2003L12.8735 56.219C12.8367 56.2378 12.8184 56.2566 12.8184 56.2942C12.8184 56.3506 12.8735 56.3881 12.9652 56.3881C12.9836 56.3881 13.0203 56.3881 13.0387 56.3693V56.2378ZM14.4523 56.3318L14.4339 56.3506H14.4523V56.3318ZM17.0592 56.4069V56.5948C17.0959 56.5948 17.1143 56.5948 17.151 56.6136C17.1877 56.6136 17.2244 56.6324 17.2428 56.6324L17.3162 56.5384V56.3881C17.2978 56.3693 17.2061 56.3318 17.1693 56.3318L17.0592 56.4069ZM14.5624 56.3506H14.5257V56.3693L14.5624 56.3506ZM14.1585 56.5009L14.0484 56.5572L14.1402 56.6324C14.1953 56.6136 14.2136 56.5384 14.1585 56.5009ZM14.5992 56.6136L14.6359 56.5009H14.5624L14.5257 56.576L14.5992 56.6136ZM13.4426 56.5948V56.7075C13.516 56.6887 13.516 56.6512 13.4426 56.5948ZM13.2223 56.8015C13.2223 56.8015 13.2039 56.8015 13.1672 56.8203L13.2406 56.8954C13.259 56.8954 13.2957 56.9142 13.3324 56.9142L13.3508 56.8954H13.3875V56.8015C13.3324 56.8015 13.2957 56.7827 13.2773 56.7639L13.2406 56.7827C13.2406 56.7827 13.2223 56.7827 13.2223 56.8015ZM14.0851 56.7827C14.0668 56.8015 14.0484 56.8015 14.0484 56.8015C14.0484 56.8203 14.0668 56.8391 14.0851 56.8766H14.2136L14.1585 56.8391C14.1218 56.8203 14.1218 56.8015 14.0851 56.7827ZM12.8367 56.8578C12.8184 56.8391 12.7082 56.8015 12.6715 56.8015C12.6715 56.8391 12.6899 56.8578 12.7266 56.8766C12.7633 56.9142 12.8184 56.9142 12.8918 56.9142H12.9469V56.8578H12.8367ZM14.03 57.0269C14.03 57.0645 14.0117 57.0833 14.0117 57.0833H14.1585C14.1953 57.0645 14.1953 57.0457 14.1953 57.0269V56.9518H14.0484C14.0484 56.9894 14.0484 56.9894 14.03 57.0269ZM12.7082 57.196C12.7082 57.2336 12.7266 57.2524 12.7449 57.2148C12.7449 57.2148 12.7633 57.2148 12.8 57.196L12.7633 57.1772H12.7449C12.7266 57.1772 12.7082 57.1772 12.7082 57.196ZM12.4879 57.553C12.543 57.553 12.5797 57.553 12.6164 57.5154C12.5797 57.5154 12.5614 57.4966 12.543 57.4778L12.5246 57.4591H12.4329C12.3961 57.4966 12.3778 57.553 12.3778 57.5718C12.4329 57.553 12.4696 57.553 12.4879 57.553ZM12.7449 57.6469C12.6532 57.6469 12.4879 57.6094 12.4879 57.6094L12.4329 57.6469C12.4512 57.6845 12.4696 57.7033 12.4879 57.7221C12.5063 57.6657 12.543 57.6469 12.5797 57.6657C12.6348 57.6657 12.6899 57.6657 12.7449 57.6469ZM11.9555 57.6469C11.9188 57.6657 11.9005 57.7033 11.9005 57.7221L11.9555 57.7597C11.9739 57.7597 11.9922 57.7409 12.029 57.7409C12.029 57.7033 12.0473 57.7033 12.084 57.6845C12.0473 57.6845 12.029 57.6657 12.029 57.6657C12.0106 57.6657 11.9922 57.6469 11.9555 57.6469ZM16.949 57.6845V58.1542C16.9858 58.0979 17.0041 58.0791 17.0225 58.0603C17.0408 58.0227 17.0592 58.0039 17.0592 57.9851L17.0225 57.8536C17.0041 57.8348 16.9858 57.7785 16.949 57.6845ZM12.7449 58.0415C12.7082 57.9663 12.7633 57.8912 12.8367 57.7972C12.8 57.7972 12.8 57.7973 12.7633 57.7785H12.6899C12.6715 57.7785 12.6348 57.7785 12.5797 57.816C12.5063 57.8348 12.4696 57.8536 12.4329 57.8724C12.5063 57.91 12.5797 57.9288 12.5981 57.9476C12.5797 58.0039 12.5614 58.0415 12.5797 58.0791L12.7449 58.0415ZM12.2309 57.9476C12.2676 57.9851 12.286 57.9851 12.3227 57.9476L12.3043 57.9288C12.286 57.9288 12.286 57.9288 12.2676 57.91C12.2493 57.9288 12.2493 57.9288 12.2309 57.9288V57.9476ZM13.0203 57.9288H12.8184C12.8367 58.0227 12.8735 58.0227 12.9469 58.0227C12.9836 58.0227 13.0203 58.0039 13.0754 57.9851L13.0203 57.9288ZM12.2676 57.9851C12.1942 58.0227 12.1758 58.0603 12.2125 58.0791C12.2125 58.1167 12.2309 58.1542 12.2309 58.1542C12.286 58.1542 12.3227 58.1354 12.3411 58.1166C12.3411 58.0791 12.3227 58.0227 12.2676 57.9851ZM13.0938 58.3233V58.173H13.002C12.9652 58.173 12.9469 58.1918 12.9469 58.2106C12.9469 58.2294 12.9285 58.2482 12.9102 58.2482C12.9102 58.1918 12.8918 58.1542 12.8551 58.1354H12.7449C12.7449 58.1542 12.7633 58.173 12.7817 58.173L12.8367 58.2294L12.7082 58.2857C12.6715 58.3045 12.6348 58.3421 12.6164 58.3609C12.6532 58.3797 12.6899 58.3797 12.7082 58.3985H12.8184C12.8551 58.3985 12.8551 58.4173 13.0938 58.3233ZM12.4329 58.2482C12.3411 58.2482 12.3043 58.3797 12.3043 58.436V58.53C12.3778 58.5864 12.4329 58.6051 12.4696 58.6051H12.5246L12.5797 58.5676V58.3233C12.543 58.3045 12.5246 58.2857 12.5063 58.267C12.4879 58.267 12.4696 58.2482 12.4329 58.2482ZM12.1758 58.4173L12.1391 58.3421C12.1208 58.3421 12.0473 58.3985 12.0473 58.4173C12.1024 58.436 12.1391 58.436 12.1758 58.4173ZM16.2147 58.3985V58.4548H16.435V58.3985H16.2147ZM13.002 58.5112C13.0203 58.5112 13.0387 58.4924 13.0387 58.4548H12.9285L12.8918 58.5112H13.002ZM11.9922 58.53C11.9188 58.5488 11.9005 58.5864 11.9005 58.6051H11.9922C12.0106 58.5864 12.0106 58.5676 11.9922 58.53ZM12.8367 58.6427C12.8735 58.6615 12.9102 58.6615 12.9469 58.6615C12.9469 58.6239 12.9102 58.5864 12.8735 58.5676L12.8367 58.6427ZM12.3043 58.6427C12.2493 58.6991 12.2309 58.7367 12.2309 58.7555L12.3961 58.7742L12.4329 58.6991C12.4145 58.6803 12.3961 58.6615 12.3961 58.6427H12.3043ZM12.5063 58.8306L12.6164 58.793L12.5981 58.6803C12.543 58.6803 12.5063 58.6991 12.5063 58.7555V58.8306ZM12.8367 58.8494L12.9652 58.8306C12.9652 58.8118 12.9469 58.793 12.9285 58.793L12.8918 58.7555C12.8551 58.7742 12.8 58.7742 12.7266 58.7742C12.6899 58.7742 12.6532 58.793 12.6532 58.793C12.6532 58.793 12.6348 58.8118 12.6164 58.8118L12.7082 58.887C12.7633 58.8682 12.8 58.8494 12.8367 58.8494ZM12.5797 59.0185H12.6715L12.7266 58.9809L12.5797 58.9433V59.0185ZM12.543 59.0185C12.5063 58.9997 12.4696 58.9809 12.3961 58.9809L12.4329 59.0561C12.4696 59.0561 12.5063 59.0561 12.543 59.0185ZM12.3227 59.1312C12.3227 59.15 12.3043 59.1688 12.286 59.1876L12.4879 59.2064C12.5063 59.2064 12.5246 59.1688 12.5246 59.15L12.3227 59.1312ZM12.1391 59.2627C12.1575 59.3003 12.1942 59.3191 12.2493 59.3191C12.2125 59.2439 12.1758 59.1876 12.1758 59.1688L12.0473 59.1876L12.1391 59.2627ZM12.3594 59.4318H12.4512C12.4329 59.3942 12.4145 59.3567 12.4329 59.3379C12.4512 59.3003 12.4512 59.2815 12.4329 59.2627L12.3778 59.3191C12.3594 59.3191 12.3594 59.3379 12.3594 59.3567V59.4318ZM12.8184 59.3942C12.8735 59.3942 12.9102 59.3567 12.9102 59.3191H12.8184V59.3942ZM11.8454 59.3379C11.8087 59.3567 11.7903 59.3755 11.7903 59.3942L11.9005 59.4318C11.9005 59.3942 11.9005 59.3943 11.9188 59.3755L11.9372 59.3567C11.8821 59.3379 11.8454 59.3379 11.8454 59.3379ZM12.4145 59.4694H12.3594V59.5446H12.4145V59.4694ZM12.5063 59.507H12.4512C12.4512 59.5258 12.4512 59.5446 12.4696 59.5446C12.4696 59.5633 12.4696 59.5633 12.4879 59.5821L12.6164 59.5446C12.5981 59.5446 12.5981 59.5258 12.5981 59.507V59.4882C12.543 59.4882 12.5246 59.507 12.5063 59.507ZM12.7449 59.7512V59.6761H12.6348V59.7512H12.7449ZM11.6985 59.7888C11.6802 59.8264 11.6802 59.864 11.7169 59.9015C11.7719 59.8827 11.8087 59.8452 11.8087 59.7888H11.6985ZM12.0657 59.9203H12.084C12.1024 59.9391 12.1024 59.9391 12.1208 59.9391C12.1391 59.9391 12.1575 59.9391 12.1758 59.9203L12.1575 59.8264H12.1208C12.1208 59.8452 12.1024 59.8452 12.1024 59.8452H12.0657V59.9203ZM11.6985 60.2209C11.7536 60.2209 11.7719 60.2209 11.7903 60.2021C11.7903 60.1834 11.8087 60.1834 11.827 60.1458L11.7719 60.1082C11.7536 60.1082 11.7169 60.127 11.6802 60.1458L11.6985 60.2209ZM12.2125 60.2209L12.2309 60.1834H12.1391V60.2021L12.2125 60.2209ZM11.9372 60.4088C11.9555 60.4276 11.9922 60.4464 12.029 60.4464V60.39C12.0473 60.39 12.029 60.3712 12.029 60.3337C11.9739 60.3337 11.9372 60.4088 11.9372 60.4088ZM13.5527 61.0852V61.1228H13.6996V61.0852H13.5527ZM14.2871 61.1416C14.232 61.1791 14.2136 61.1979 14.1953 61.1979C14.232 61.2167 14.2503 61.2543 14.2503 61.2731H14.3421C14.3605 61.2543 14.3788 61.2355 14.3788 61.2167C14.3788 61.1979 14.3972 61.1791 14.3972 61.1791L14.3605 61.0852C14.3605 61.104 14.3238 61.1416 14.2871 61.1416ZM15.3702 61.1603L15.3335 61.2167H15.3702L15.3886 61.1791L15.3702 61.1603ZM13.773 61.2167V61.1791H13.6629V61.2167H13.773ZM14.6359 61.2543L14.6175 61.3294L14.6909 61.3107C14.6909 61.2919 14.6909 61.2919 14.6726 61.2919C14.6542 61.2919 14.6542 61.2731 14.6359 61.2543ZM13.5527 61.3482V61.367L13.5894 61.4046C13.6445 61.3858 13.6629 61.367 13.6262 61.3294C13.6078 61.3294 13.5894 61.3294 13.5894 61.3482H13.5527ZM14.1953 61.4046C14.1769 61.3858 14.1402 61.367 14.1035 61.367L14.1402 61.4985C14.1585 61.4985 14.1585 61.4797 14.1585 61.4797C14.1769 61.4797 14.1769 61.461 14.1769 61.4422C14.1953 61.4422 14.1953 61.4234 14.1953 61.4046ZM14.5441 61.4422C14.489 61.461 14.4523 61.4985 14.4523 61.5361H14.5441C14.5441 61.5173 14.5441 61.4985 14.5624 61.4797C14.5624 61.4797 14.5624 61.461 14.5441 61.4422ZM12.0473 61.724H11.9372V61.8367C11.9372 61.8179 11.9555 61.8179 11.9739 61.7991L12.0473 61.724ZM12.3043 61.724C12.3043 61.7616 12.3411 61.7803 12.3961 61.7803V61.7428C12.3961 61.724 12.3961 61.724 12.4145 61.724H12.3043ZM13.2773 61.7803H13.259L13.2957 61.8555H13.3324L13.2773 61.7803ZM15.1683 61.8367H15.0214C15.0214 61.8931 15.0581 61.9307 15.1132 61.9307L15.1499 61.8743C15.1683 61.8555 15.1683 61.8367 15.1683 61.8367ZM14.3788 61.9307V61.8743H14.3421L14.3238 61.9307H14.3788ZM13.7914 61.987C13.8097 61.987 13.8097 61.9682 13.8097 61.9682L13.773 61.9307H13.7363L13.773 62.0058C13.773 62.0058 13.773 61.987 13.7914 61.987ZM12.1942 62.2876V62.1937H12.0473V62.2876H12.1942ZM10.5052 62.607C10.5052 62.5507 10.5236 62.5131 10.5603 62.4943H10.3216V62.607H10.5052ZM17.2244 62.4943L17.1877 62.5695L17.408 62.607V62.5507L17.2244 62.4943ZM11.6985 62.607V62.5319H11.4966V62.607H11.6985ZM13.057 62.607H12.9102V62.701H13.057V62.607ZM13.9199 62.6822C13.9015 62.7198 13.9015 62.7761 13.9015 62.8325C13.9015 62.8889 13.9199 62.9264 13.9199 62.9264H14.1769C14.1769 62.9076 14.1953 62.8889 14.2136 62.8513C14.232 62.8325 14.232 62.7949 14.232 62.7761L14.1402 62.6822H13.9199ZM11.0927 62.701V62.7761H11.2946V62.701H11.0927ZM11.9005 63.1707C12.029 63.0955 12.0657 62.8137 11.9739 62.7198C11.9372 62.7198 11.8637 62.7573 11.827 62.7761C11.8821 62.9076 11.9005 63.0579 11.9005 63.1707ZM10.0646 62.9076C10.1013 63.0016 10.2482 62.9452 10.2849 62.9076H10.0646ZM10.8357 63.058V62.9828H10.7989V62.9076H10.6337V62.9828H10.7989V63.058H10.8357ZM12.6532 63.0955C12.6899 63.0579 12.7266 63.0392 12.7449 63.0204C12.6715 63.0204 12.5981 63.0204 12.543 63.0392C12.5063 63.058 12.4696 63.058 12.4329 63.0767C12.3961 63.0767 12.3778 63.0955 12.3411 63.0955C12.3778 63.1143 12.4696 63.2083 12.4696 63.2458C12.5614 63.1895 12.6348 63.1143 12.6532 63.0955ZM11.4966 63.1895C11.5333 63.1331 11.5333 63.0955 11.5333 63.0767H11.2212V63.2458C11.3313 63.2458 11.4231 63.2646 11.4782 63.2834C11.4782 63.2834 11.4966 63.2458 11.4966 63.1895ZM14.8562 63.1331V63.1707H14.9847V63.1331H14.8562ZM17.1877 63.4149C17.1877 63.4525 17.1693 63.4713 17.151 63.4713C17.1877 63.4713 17.2244 63.4525 17.2611 63.4149H17.1877ZM11.2763 63.5277V63.4525H11.1294V63.5277H11.2763Z" fill="white"/>
<path d="M29.5907 63.5464C29.6274 63.7907 29.4622 63.9974 29.2235 63.9974H26.4514C26.2311 63.9974 26.1026 63.8846 26.0842 63.6592L25.9007 61.367L23.1285 61.9307L22.7246 63.6592C22.6696 63.8471 22.5411 63.941 22.3575 63.941L19.6404 63.8846C19.4018 63.8846 19.2549 63.6592 19.2916 63.3961C19.6771 61.9307 20.1177 60.4276 20.5583 58.9621C20.8888 57.8724 21.2743 56.8015 21.6782 55.7493C22.229 54.3214 22.8164 52.8935 23.4039 51.4844C23.459 51.3717 23.5508 51.2965 23.6793 51.259C24.0832 51.1838 24.4871 51.0899 24.9093 51.0335C25.2214 50.9771 25.5886 50.9771 25.9741 51.0147C26.6901 51.0711 27.1123 51.6723 27.3877 52.3111C27.5346 52.7244 27.6631 53.1941 27.7732 53.6075C27.8099 53.7578 28.0486 54.7723 28.2138 55.6742L29.5907 63.5464ZM23.7711 51.7099V51.8226H23.8445V51.7099H23.7711ZM26.0108 52.1608V52.3111H26.0659V52.1608H26.0108ZM25.8639 52.4614V52.5741L25.919 52.6305C25.9374 52.5929 25.9557 52.5553 25.9557 52.4802C25.9007 52.4802 25.8639 52.4802 25.8639 52.4614ZM23.8812 52.5741H23.8262C23.8078 52.5741 23.7894 52.5553 23.7894 52.5553V52.7996C23.7894 52.7432 23.8262 52.6681 23.8812 52.5741ZM26.2128 52.6117C26.2311 52.5929 26.2495 52.5741 26.2678 52.5741L26.0659 52.5553V52.6305C26.0842 52.6493 26.0842 52.6493 26.0842 52.6869H26.1577C26.1577 52.6681 26.176 52.6493 26.2128 52.6117ZM26.0292 52.5741V52.6305L26.0659 52.6869V52.6493L26.0292 52.5741ZM26.4147 52.7808C26.3596 52.7808 26.3229 52.8184 26.2862 52.9123L26.3229 52.9499H26.5616C26.5799 52.9499 26.5983 52.9311 26.635 52.9123C26.5799 52.8747 26.5432 52.8559 26.5432 52.7996L26.5799 52.7432C26.5248 52.762 26.4698 52.7808 26.4147 52.7808ZM26.3596 53.2881C26.3229 53.2881 26.2862 53.3069 26.2862 53.3632C26.3045 53.382 26.3413 53.4008 26.378 53.4008C26.4147 53.4008 26.4331 53.4196 26.4698 53.4384C26.4881 53.4196 26.5065 53.4008 26.5065 53.382C26.5065 53.3632 26.5065 53.3632 26.5248 53.3444C26.4698 53.3069 26.4147 53.2881 26.3596 53.2881ZM24.8726 53.4008L24.8359 53.4384L24.8726 53.4572L24.8909 53.4008H24.8726ZM25.1296 53.5511H25.0562L25.0745 53.6451H25.1663C25.1847 53.6638 25.203 53.6451 25.2398 53.6451C25.2398 53.5887 25.2214 53.5511 25.203 53.5323C25.148 53.5323 25.1296 53.5511 25.1296 53.5511ZM26.6717 53.8893C26.6534 53.9269 26.6166 53.9269 26.5799 53.9457C26.5616 53.9457 26.5432 53.9645 26.5432 54.002C26.5432 54.0208 26.5616 54.0396 26.5799 54.0584H26.6901C26.7268 54.0396 26.7635 54.002 26.7635 53.9832C26.7635 53.9269 26.7268 53.8893 26.6717 53.8893ZM22.6329 54.622C22.6512 54.5845 22.5227 54.6784 22.5227 54.716C22.5227 54.7536 22.5961 54.9227 22.6329 54.9227C22.6512 54.8287 22.6512 54.716 22.6329 54.622ZM23.8996 54.8663V54.9039C23.8996 54.9039 23.8996 54.8851 23.9363 54.8851C23.973 54.9039 23.9914 54.9039 24.0097 54.8663L23.9179 54.8287C23.8996 54.8287 23.8996 54.8475 23.8996 54.8663ZM22.6879 55.1669L22.6145 55.1857V55.3924H22.6879V55.1669ZM24.7992 55.2608C24.7074 55.2421 24.6156 55.2796 24.5421 55.3924C24.5972 55.5615 24.6523 55.5802 24.7992 55.5051L24.8542 55.3548C24.8542 55.336 24.8359 55.3172 24.8359 55.3172C24.8359 55.2984 24.8175 55.2796 24.7992 55.2608ZM26.8737 55.2796H26.7451V55.3172H26.8737V55.2796ZM26.9471 55.6178C26.9471 55.5615 26.9104 55.5239 26.8369 55.5239C26.8186 55.5615 26.8186 55.5802 26.8186 55.5802L26.8369 55.6178H26.9471ZM24.0832 58.6239L25.4601 58.5864L25.3499 57.6845C25.3132 57.3839 25.2765 57.0833 25.2214 56.7827C25.148 56.3881 25.0745 55.9936 24.9827 55.599L24.0832 58.6239ZM24.6523 55.7305L24.6156 55.7118L24.5605 55.8621L24.5972 55.8809L24.6523 55.7305ZM26.3413 55.8057L26.2862 55.8245L26.3413 55.8621L26.378 55.8433L26.3413 55.8057ZM24.0465 57.1772V56.9518C24.1382 56.8954 24.23 56.7451 24.2484 56.6887C24.2668 56.6324 24.2851 56.576 24.2851 56.5384C24.3035 56.4821 24.3585 56.3693 24.4687 56.1439L24.3769 56.1063C24.3402 56.1251 24.3218 56.1439 24.2851 56.1815C24.2484 56.219 24.2117 56.2566 24.1933 56.2566C24.1566 56.3881 24.1382 56.5009 24.1015 56.5948C24.0648 56.67 24.0465 56.7263 24.0281 56.7263C24.0281 56.7451 24.0097 56.7827 23.973 56.8015C23.9547 56.8203 23.9363 56.8578 23.9179 56.933C23.9363 56.8954 23.8629 57.1021 23.7894 57.3463C23.7344 57.5154 23.716 57.6094 23.716 57.6094C23.6793 57.7221 23.6609 57.7785 23.5508 57.91C23.4223 58.0603 23.4223 58.1166 23.3855 58.2482C23.3672 58.2857 23.3488 58.3421 23.3488 58.4173C23.3305 58.5112 23.2938 58.5864 23.2387 58.6803C23.202 58.7554 23.1652 58.8306 23.1469 58.9058C23.1469 58.9809 23.1652 59.0373 23.1836 59.0373C23.2203 59.0561 23.2387 59.0561 23.2754 59.0373C23.2754 59.0185 23.3121 58.9997 23.3305 58.9809C23.3855 58.8682 23.4223 58.7554 23.4406 58.6615C23.459 58.5488 23.5141 58.4361 23.5691 58.3609C23.5691 58.3233 23.6059 58.267 23.6793 58.1918L23.7527 57.9851C23.7527 58.0227 23.9363 57.4403 24.0465 57.1772ZM26.4698 56.5572H26.5799V56.5196C26.5799 56.5196 26.5799 56.5009 26.5983 56.5009L26.4698 56.4821V56.5572ZM26.8369 56.6887L26.9471 56.7263V56.6887L26.8369 56.6512V56.6887ZM26.0659 56.7827C26.0842 56.8391 26.1577 56.8203 26.1577 56.7827H26.0659ZM27.1123 57.3651L27.0205 57.4403C27.094 57.4403 27.1123 57.4215 27.1123 57.3651ZM25.7354 57.4215V57.4966H25.8456C25.8456 57.4779 25.8272 57.4591 25.8089 57.4403C25.7722 57.4403 25.7354 57.4215 25.7354 57.4215ZM26.5065 57.6845C26.4881 57.5718 26.4147 57.5154 26.2862 57.4966C26.2495 57.5154 26.2311 57.553 26.2311 57.6094H26.3413C26.2862 57.6469 26.2678 57.6845 26.3229 57.7409H26.4881V57.6845H26.5065ZM26.9838 57.5342V57.5718C27.0389 57.5718 27.094 57.5718 27.094 57.5342C27.0756 57.5342 27.0572 57.4966 27.0572 57.4966H27.0205C27.0022 57.4966 26.9838 57.5154 26.9838 57.5342ZM26.7268 57.5342C26.7268 57.553 26.7268 57.553 26.7451 57.5718C26.7635 57.5906 26.7635 57.6094 26.8002 57.6094L26.8369 57.553C26.8369 57.5342 26.8002 57.5342 26.7268 57.5342ZM26.9838 57.6845V57.7785C27.0756 57.8348 27.1674 57.816 27.2775 57.7597C27.2408 57.7221 27.1858 57.6845 27.1307 57.6845H26.9838ZM26.4881 58.0039C26.5248 58.0039 26.5616 58.0039 26.5799 58.0227H26.6901V57.9288C26.6717 57.9288 26.6534 57.91 26.635 57.91C26.6166 57.8912 26.5983 57.8912 26.5799 57.8912C26.5248 57.91 26.4881 57.9476 26.4881 58.0039ZM25.9007 57.9851V57.9476H25.7538V57.9851H25.9007ZM27.3693 58.0227C27.351 57.9663 27.3326 57.9476 27.3143 57.9476H27.1307C26.9104 58.0979 26.9287 58.0603 26.9287 58.1166C26.9287 58.173 26.9838 58.2482 27.094 58.436H27.351C27.3693 58.436 27.3877 58.4173 27.4244 58.4173C27.3877 58.3609 27.351 58.3233 27.2959 58.3233C27.2408 58.3233 27.1858 58.2857 27.1123 58.2106C27.1858 58.1918 27.2408 58.173 27.2592 58.1354C27.2775 58.0979 27.3143 58.0603 27.3693 58.0227ZM22.9633 58.1354V58.0039H22.8899C22.8715 58.0603 22.8532 58.1354 22.8532 58.173C22.8532 58.2294 22.8715 58.267 22.9082 58.2857C22.9449 58.2294 22.9633 58.173 22.9633 58.1354ZM26.5432 58.173C26.5432 58.1354 26.5248 58.1166 26.5248 58.0979L26.5065 58.0603H26.378V58.1354L26.4698 58.2106V58.1918C26.4881 58.1918 26.4881 58.1918 26.5065 58.173H26.5432ZM26.7451 58.1918C26.7451 58.1918 26.7268 58.1918 26.7268 58.173H26.6901L26.7268 58.3985C26.7819 58.3233 26.8002 58.2106 26.8002 58.2106C26.7819 58.2106 26.7635 58.1918 26.7451 58.1918ZM26.3045 58.2857C26.2495 58.267 26.1944 58.2857 26.1577 58.2857L26.2128 58.3797C26.2495 58.3609 26.2862 58.3609 26.3229 58.3609C26.3413 58.3609 26.3963 58.3797 26.4514 58.3797C26.5065 58.3797 26.5799 58.3233 26.5799 58.2857H26.3045ZM26.1393 58.5676L26.1577 58.4924H26.121L26.1026 58.5488L26.1393 58.5676ZM26.378 58.7555C26.3963 58.7367 26.3963 58.7367 26.3963 58.6991C26.378 58.6991 26.3413 58.6803 26.2862 58.6803L26.2495 58.7179C26.2495 58.7367 26.2495 58.7367 26.2311 58.7555L26.3596 58.793C26.3596 58.7742 26.3596 58.7555 26.378 58.7555ZM26.0842 58.7555C26.121 58.7555 26.1393 58.7367 26.121 58.7179L26.0842 58.7555ZM27.094 58.9621H27.1123C27.1123 58.9433 27.094 58.9245 27.0572 58.887C27.0572 58.887 27.0389 58.9058 27.0022 58.9058C26.9838 58.9058 26.9838 58.9058 26.9838 58.9245C27.0022 58.9245 27.0756 58.9621 27.094 58.9621ZM26.7635 59.2252H26.9471C26.9287 59.2064 26.9104 59.1688 26.9104 59.1124C26.892 59.0748 26.8737 59.0373 26.8737 58.9997C26.7635 58.9245 26.6717 58.887 26.5799 58.9058C26.5799 58.9245 26.6166 58.9433 26.635 58.9433C26.6901 58.9621 26.7268 59.0185 26.7635 59.1124V59.2252ZM26.0292 59.1124V59.0373H25.9741V59.1124H26.0292ZM27.5896 59.2252V59.2627H27.6998V59.2439L27.5896 59.2252ZM26.4514 59.2627H26.378V59.3567H26.4514V59.2627ZM25.919 59.3942V59.4318H25.9741V59.3942H25.919ZM25.3683 59.5258V59.4882H25.2765V59.5258H25.3683ZM25.7538 59.7888C25.7722 59.77 25.7722 59.7324 25.7722 59.6949C25.7354 59.6949 25.6987 59.7137 25.6436 59.7512H25.7171L25.7538 59.7888ZM26.3596 59.8264C26.3413 59.8452 26.3229 59.8827 26.2678 59.9203C26.3045 59.9391 26.3963 59.9767 26.4514 59.9767C26.5249 59.9203 26.5799 59.864 26.5799 59.8264C26.5799 59.8076 26.5616 59.7888 26.5248 59.7512C26.4881 59.7512 26.4698 59.7324 26.4698 59.7136L26.3596 59.8264ZM26.8369 60.3149H26.7451V60.3524H26.8369V60.3149ZM26.6166 60.3524H26.5065C26.5065 60.4276 26.5432 60.4652 26.6166 60.5028V60.3524ZM27.3693 60.4276L27.2225 60.484C27.2225 60.5215 27.2775 60.6531 27.3877 60.6531C27.4428 60.6531 27.4795 60.6531 27.4978 60.6343C27.4978 60.6531 27.5346 60.6343 27.608 60.6155C27.5896 60.5779 27.5713 60.5779 27.5529 60.5779L27.4795 60.5215C27.4611 60.5028 27.4611 60.4464 27.4611 60.3524C27.4428 60.4088 27.4244 60.4276 27.3693 60.4276ZM23.3121 60.5967V60.5028H23.1102V60.5967H23.3121ZM22.7246 60.9725H22.9082C22.8715 60.8973 22.8715 60.8597 22.8715 60.8597C22.8532 60.8222 22.8348 60.7846 22.8348 60.747C22.7981 60.7282 22.6512 60.6531 22.6145 60.6531C22.4676 60.6531 22.4309 60.7658 22.4309 60.8034C22.4309 60.8597 22.5227 60.9913 22.6696 60.9913C22.6879 60.9913 22.7063 60.9912 22.7246 60.9725ZM26.0292 60.7282V60.6531H25.9741V60.7282H26.0292ZM27.9752 60.6719V60.7094H28.0486V60.6719H27.9752ZM26.176 60.7282C26.2311 60.747 26.2495 60.7658 26.2495 60.7846H26.4331V60.7282H26.176ZM25.2398 60.8034L25.2948 60.7846L25.2765 60.747L25.2214 60.7658L25.2398 60.8034ZM28.3423 63.321C28.3791 63.321 28.3974 63.321 28.4341 63.2834C28.3974 63.0955 28.3791 62.9452 28.3607 62.8325C28.3423 62.7198 28.324 62.5695 28.2873 62.3816C28.2689 62.3628 28.2505 62.344 28.2138 62.2876C28.1955 62.2313 28.1771 62.2125 28.1771 62.1937C28.1771 62.1561 28.1955 62.1185 28.2689 62.0622C28.1588 62.0058 28.1037 61.9494 28.122 61.8931C28.1771 61.7804 28.1771 61.6488 28.0853 61.4985C28.0486 61.4422 28.0302 61.4046 28.0302 61.367C28.0302 61.3294 28.0486 61.2919 28.0853 61.2919C28.122 61.2731 28.122 61.1791 28.0486 61.0476L27.9201 61.1603C27.865 61.1979 27.8283 61.2355 27.7916 61.2543L27.7365 61.2167V61.0288C27.7365 60.9537 27.7916 60.9349 27.9017 60.9349L27.9752 60.9913V60.8409C27.9201 60.8034 27.7182 60.747 27.6998 60.747C27.5896 60.747 27.351 60.8409 27.351 60.9537C27.351 60.9725 27.3693 60.9912 27.3877 61.01C27.351 60.9912 27.3877 61.01 27.4611 61.0664C27.4244 61.104 27.4244 61.1416 27.4611 61.1979C27.4978 61.2167 27.5162 61.2355 27.5346 61.2543C27.5713 61.2731 27.5713 61.2919 27.5713 61.2919C27.5162 61.3294 27.4795 61.3294 27.4428 61.3294C27.3326 61.3294 27.2775 61.367 27.2775 61.4234C27.2592 61.4985 27.2592 61.5361 27.2408 61.5549C27.2959 61.5361 27.3693 61.5737 27.351 61.6113C27.351 61.63 27.3326 61.6488 27.3143 61.6488C27.2959 61.6488 27.2959 61.6488 27.2959 61.6676C27.2959 61.6864 27.2959 61.7052 27.2775 61.724C27.2592 61.7428 27.2408 61.7804 27.2408 61.7991V61.9682C27.3143 62.0058 27.6447 62.1185 27.4428 62.2125C27.4978 62.2313 27.5713 62.2313 27.6631 62.2313C27.6998 62.2313 27.7182 62.2313 27.7549 62.2125H27.865V62.4755H27.8467V62.4943H27.8283L27.8834 62.5507C27.9017 62.5695 27.9017 62.5882 27.9385 62.607C27.9385 62.6258 27.9568 62.6446 27.9752 62.6446C27.9935 62.6822 28.0119 62.6822 28.0302 62.701C28.0302 62.7386 28.0486 62.7949 28.0486 62.8701C28.067 62.9264 28.1037 62.9828 28.1771 63.0204C28.1771 63.0392 28.1771 63.058 28.1588 63.0767V63.1143C28.1588 63.1707 28.2873 63.321 28.3423 63.321ZM21.4212 61.0664C21.4579 61.0288 21.4395 61.01 21.3661 60.9913V61.0288L21.4212 61.0664ZM22.2106 61.367C22.2473 61.3294 22.229 61.3106 22.1922 61.2731C22.1739 61.2919 22.1555 61.3294 22.1555 61.367C22.1555 61.3858 22.1739 61.3858 22.1922 61.3858C22.2106 61.3858 22.2106 61.3858 22.2106 61.367ZM27.094 61.5549C27.1123 61.5549 27.1123 61.5173 27.1123 61.4985H26.9838C26.9838 61.5173 26.9838 61.5549 27.0022 61.5549C27.0205 61.5925 27.0389 61.5925 27.0572 61.6113C27.0572 61.5925 27.0756 61.5925 27.094 61.5549ZM21.6415 61.5737V61.6488L21.77 61.7052L21.8067 61.6864V61.5925C21.8067 61.5549 21.77 61.5361 21.6966 61.5361C21.6782 61.5549 21.6782 61.5549 21.6599 61.5549C21.6599 61.5549 21.6415 61.5549 21.6415 61.5737ZM26.3596 61.63V61.5549H26.2311V61.63H26.3596ZM26.5799 61.7052V61.7803H26.6901C26.6901 61.724 26.6534 61.724 26.5799 61.7052ZM21.6966 62.0058C21.6966 61.9682 21.7333 61.9682 21.77 61.9307L21.8985 61.8931V61.8179C21.8802 61.7991 21.8618 61.7803 21.8434 61.7803C21.8067 61.7616 21.7884 61.7428 21.77 61.724C21.7149 61.8367 21.6231 61.8931 21.4763 61.8931C21.4763 61.9119 21.5497 62.0434 21.6415 62.0434C21.6599 62.0434 21.6782 62.0246 21.6966 62.0058ZM26.3963 62.0058L26.5799 61.9682L26.4698 61.9119C26.4147 61.8931 26.3963 61.8931 26.378 61.8743L26.3963 62.0058ZM22.4309 62.3816C22.4676 62.3628 22.4676 62.344 22.4676 62.3064L22.4309 62.2688C22.4125 62.2688 22.3942 62.2688 22.3942 62.2876H22.3575C22.3208 62.3064 22.3024 62.3064 22.284 62.3064C22.3208 62.344 22.3391 62.344 22.3575 62.3628C22.3575 62.3628 22.3942 62.3628 22.4309 62.3816ZM21.5497 62.4943H21.6599C21.6415 62.4943 21.5681 62.4192 21.5313 62.4192C21.4763 62.4192 21.4395 62.4567 21.4395 62.4943C21.4579 62.5131 21.4946 62.5131 21.5497 62.4943ZM21.8802 62.5695C21.9169 62.5319 21.9352 62.5131 21.9536 62.5131C21.9536 62.4755 21.9352 62.4379 21.8802 62.4192C21.8067 62.4567 21.77 62.4755 21.77 62.4943L21.8802 62.5695ZM26.635 62.5131L26.5983 62.5695H26.8002C26.8002 62.5319 26.7635 62.4943 26.7268 62.4567C26.7084 62.4755 26.6717 62.4943 26.635 62.5131ZM26.9838 63.4525C26.9838 63.4525 26.9838 63.4337 27.0022 63.4337C26.9655 63.3586 26.9471 63.3022 26.9471 63.2458H26.7635C26.8002 63.321 26.9104 63.4525 26.9655 63.4901C26.9838 63.4713 26.9838 63.4713 26.9838 63.4525Z" fill="white"/>
<path d="M39.331 51.0711C39.5513 51.0711 39.6982 51.2777 39.6982 51.4844C39.5146 53.4196 39.3861 55.3548 39.3494 57.3088C39.331 57.5906 39.331 57.8724 39.331 58.1542C39.331 58.4361 39.3127 58.7179 39.3127 58.9997H39.2209C39.1658 58.9997 39.1107 58.9997 39.0924 59.0185C39.074 59.0373 38.9822 59.0373 38.8537 59.0373L38.8904 59.0748L38.8537 59.1124H38.8904C38.9088 59.1124 38.9272 59.1124 38.9639 59.0936C39.0006 59.1124 39.0557 59.1124 39.1475 59.1124H39.276C39.2943 59.1124 39.3127 59.1124 39.3127 59.1312V59.1688H39.2209L39.2576 59.1876L39.2209 59.2252H39.3127C39.2943 60.6531 39.2943 62.081 39.2943 63.4901C39.2943 63.7531 39.1658 63.8846 38.9272 63.8846L36.5038 63.941C36.3202 63.941 36.2101 63.8658 36.1367 63.6968L35.8613 62.9076H35.8796V62.8889H35.8429L34.3926 58.9433C34.466 58.9058 34.5395 58.8682 34.6129 58.8118L34.5211 58.8306L34.4844 58.8118C34.466 58.8118 34.4293 58.8306 34.3926 58.8306C34.3742 58.8306 34.3559 58.8494 34.3559 58.8494L33.6583 56.9706L33.5298 63.6216C33.5114 63.8658 33.3829 63.9974 33.1442 63.9974H30.6658C30.4455 63.9974 30.2987 63.8283 30.2987 63.6028C30.3354 62.6822 30.3905 61.7428 30.4455 60.8222C30.5373 58.9621 30.6108 57.3463 30.776 55.3548L31.1064 51.428C31.1248 51.2026 31.2349 51.0899 31.4736 51.0711L33.236 51.0147C34.0622 50.9583 34.6129 51.522 34.925 52.2547L34.9434 52.2735L36.4671 56.3506L36.7609 51.3717C36.7609 51.1274 36.8894 51.0147 37.1464 51.0147L39.331 51.0711ZM32.6118 53.7014C32.5751 53.7014 32.5568 53.7202 32.5384 53.7578L32.6486 53.8141C32.6486 53.7578 32.6302 53.7202 32.6118 53.7014ZM32.2814 54.622V54.6784H32.3915V54.622H32.2814ZM32.6853 54.7723C32.7403 54.7348 32.7587 54.6972 32.7587 54.6408H32.6486V54.716C32.6669 54.7348 32.6853 54.7536 32.6853 54.7723ZM33.5481 54.7536C33.5298 54.7348 33.493 54.6784 33.4196 54.6408C33.4196 54.6972 33.438 54.7536 33.4563 54.7911C33.493 54.7723 33.5114 54.7723 33.5114 54.7723C33.5114 54.7723 33.5298 54.7536 33.5481 54.7536ZM33.1259 54.8851C33.1626 54.8851 33.2177 54.8663 33.2727 54.8287L33.2911 54.7911H32.9606V54.7348H32.8138V54.8099H32.9606V54.7911L32.9974 54.8287C33.0341 54.8475 33.0524 54.8663 33.0708 54.8663C33.0708 54.8851 33.0892 54.8851 33.1259 54.8851ZM33.2911 54.8099V54.8663L33.4012 54.9039L33.438 54.8475L33.2911 54.8099ZM33.5298 54.9227C33.5848 54.9227 33.6399 54.9039 33.6766 54.8663C33.6215 54.8287 33.5848 54.8099 33.5481 54.8099C33.5298 54.8287 33.5114 54.8475 33.5298 54.8663V54.9227ZM32.9239 54.9414C32.9606 54.9978 33.0157 55.0166 33.0892 54.979C33.0341 54.9414 32.979 54.9414 32.9239 54.9414ZM32.7954 56.0124V55.9372H32.6486V56.0124H32.7954ZM33.6215 56.1063H33.438V56.1815H33.6215V56.1063ZM33.6583 56.7827C33.7317 56.7075 33.7133 56.6512 33.5665 56.5948C33.5848 56.67 33.6032 56.7451 33.6583 56.7827ZM34.9984 56.6324C34.9984 56.7451 34.9984 56.7827 34.8149 56.7827L34.8516 56.8391L35.0902 56.67L34.9984 56.6324ZM33.3278 56.67V56.7827H33.4563V56.67H33.3278ZM34.6313 56.8203V56.933H34.7231V56.8203H34.6313ZM32.9974 56.8766C33.0892 57.0081 33.1626 56.9706 33.1809 56.8766H32.9974ZM34.9617 56.9706C34.9801 56.9706 34.9617 56.9518 34.9617 56.933L34.925 56.8954C34.925 56.9142 34.9066 56.933 34.9066 56.9518C34.9066 56.9706 34.925 56.9894 34.9434 57.0269H34.9617V56.9706ZM33.7684 56.933C33.8786 56.9706 33.9704 56.9706 34.0254 56.933H33.7684ZM33.5481 57.1585V57.0833H33.3645V57.1585H33.5481ZM32.5751 57.2712H32.7954C32.7954 57.2336 32.7771 57.196 32.7587 57.1585V57.1209C32.6853 57.1209 32.6118 57.1397 32.5751 57.1772V57.2712ZM35.1086 57.196H35.0352V57.2712H35.1086V57.196ZM34.7965 57.3839V57.4403H34.925V57.3839H34.7965ZM36.5405 57.3839L36.5222 57.4215L36.5405 57.4403L36.5773 57.3839H36.5405ZM32.5751 57.553L32.6853 57.5906C32.7771 57.5342 32.7403 57.4778 32.5751 57.4403V57.553ZM32.7954 57.5342V57.6094H32.9239V57.5342H32.7954ZM34.925 57.7597L34.9617 57.7785L35.0902 57.7597C35.0719 57.7033 35.0535 57.6282 35.0535 57.5342C35.0352 57.5718 35.0168 57.5718 35.0168 57.5906L34.9617 57.6469C34.925 57.6657 34.9066 57.6657 34.9066 57.6657C34.9066 57.6657 34.9066 57.6845 34.8883 57.7033C34.9066 57.7221 34.925 57.7409 34.925 57.7597ZM34.3742 57.91V57.8536C34.3559 57.8536 34.3559 57.8348 34.3559 57.8348C34.3192 57.8348 34.3008 57.816 34.2825 57.7972C34.2641 57.7972 34.2457 57.8348 34.2457 57.8724V57.91H34.3742ZM32.7036 57.8724C32.6485 57.91 32.6118 57.9476 32.6118 58.0039H32.7954L32.7036 57.8724ZM37.5136 57.9288V57.8724H37.4768V57.9288H37.5136ZM33.2727 58.1918V58.0415H33.1626V58.1918H33.2727ZM32.465 58.1918V58.0603H32.3181V58.1918H32.465ZM35.2922 58.3609H35.1269C35.1269 58.4173 35.182 58.4736 35.2922 58.4736V58.3609ZM35.7328 58.6051C35.6226 58.5488 35.5308 58.5112 35.4758 58.5112C35.4758 58.5864 35.5308 58.6239 35.6226 58.6427C35.641 58.6239 35.6593 58.6239 35.6777 58.6239L35.7328 58.6051ZM35.0352 58.6051L34.9801 58.6991L35.0719 58.7367L35.1453 58.6239L35.0352 58.6051ZM35.3656 58.6615L35.3289 58.6051L35.1269 58.6615L35.1453 58.7179L35.3656 58.6615ZM37.0362 58.6051L36.9812 58.6615L37.0546 58.6991L37.1097 58.6239L37.0362 58.6051ZM35.6043 58.7179L35.6226 58.7742L35.7695 58.7555L35.7511 58.6803L35.6043 58.7179ZM32.0611 58.8682C32.1345 58.8682 32.2079 58.8494 32.2447 58.8306L32.2079 58.7179C32.0978 58.7742 32.0611 58.8118 32.0611 58.8682ZM34.8883 58.8494L34.925 58.8118C34.8883 58.7742 34.8516 58.7367 34.7965 58.7179C34.7781 58.7554 34.7414 58.7742 34.668 58.793C34.6863 58.8118 34.7047 58.8118 34.7231 58.8118C34.7414 58.8118 34.7414 58.8306 34.7598 58.8306C34.8148 58.8494 34.8332 58.8682 34.8332 58.8682C34.8332 58.8682 34.8516 58.8682 34.8883 58.8494ZM32.6118 58.8682L32.5751 58.793L32.465 58.8494V58.9245L32.6118 58.8682ZM32.2814 58.9433L32.3181 59.1124H32.6853C32.52 59.0185 32.465 58.9997 32.52 59.0185L32.465 58.9809C32.3915 58.9621 32.3365 58.9621 32.2814 58.9433ZM35.0719 59.2627C35.0902 59.2627 35.1269 59.2815 35.1637 59.3003C35.1453 59.2252 35.1086 59.1876 35.0535 59.1876C35.0352 59.2064 35.0352 59.2252 35.0535 59.2439C35.0535 59.2439 35.0535 59.2627 35.0719 59.2627ZM36.9995 59.3003L36.9812 59.2815C36.9995 59.3379 37.0179 59.3755 37.0546 59.3942C37.0913 59.3755 37.0913 59.3567 37.0729 59.3003H36.9995ZM35.1453 59.3191V59.4318C35.1453 59.4318 35.1637 59.4318 35.182 59.413H35.2004C35.2187 59.413 35.2371 59.3943 35.2555 59.3755H35.2738L35.2922 59.3567C35.2187 59.3379 35.182 59.3191 35.1453 59.3191ZM35.8613 59.3567V59.4694H35.9531L35.9164 59.3379L35.8613 59.3567ZM32.6118 59.3567V59.4506H32.7954V59.3567H32.6118ZM35.439 59.6009L35.3472 59.5821L35.3105 59.6385L35.4023 59.6761L35.439 59.6009ZM32.8321 59.7512V59.6197H32.722V59.7512H32.8321ZM35.0902 59.7512C35.0352 59.7512 34.9984 59.8076 35.0535 59.8264C35.0719 59.8264 35.1086 59.8264 35.1637 59.8076L35.0902 59.7512ZM35.8613 59.9203C35.8429 59.9391 35.8429 59.9391 35.8062 59.9391H35.7695C35.7695 59.9767 35.8062 60.0143 35.8429 60.0706C35.8613 60.1082 35.898 60.1458 35.9164 60.1646C35.9531 60.1458 35.9898 60.127 36.0265 60.0894C36.0632 60.0518 36.1183 60.033 36.1734 59.9767C36.1183 59.9955 36.0816 59.9955 36.0632 59.9955H36.0265C36.0082 60.0143 35.9898 60.0143 35.9898 60.0143L35.9531 60.033C35.9347 60.0143 35.9164 59.9955 35.9164 59.9767C35.9164 59.9579 35.9164 59.9391 35.8796 59.9203H35.8613ZM35.2371 59.9579L35.2738 60.033L35.4023 59.9955L35.3656 59.9391L35.2371 59.9579ZM32.6118 60.1082V60.0518C32.5384 60.0518 32.5017 60.0518 32.5017 60.0706C32.465 60.0894 32.465 60.1082 32.465 60.127L32.5751 60.2021C32.5935 60.1646 32.6118 60.127 32.6118 60.1082ZM36.357 60.1458L36.2101 60.1834H36.1734C36.1734 60.1834 36.1367 60.1834 36.1183 60.2021C36.1183 60.2021 36.1367 60.1834 36.1367 60.1646H35.9898C35.9714 60.1834 35.9531 60.1834 35.9164 60.1834C35.9347 60.2397 35.9531 60.2585 35.9898 60.2585L36.0265 60.2961C36.0449 60.2773 36.0632 60.2773 36.0816 60.2397H36.2468L36.3937 60.2021L36.357 60.1458ZM36.5222 60.2021L36.4304 60.2397L36.5038 60.3524L36.5773 60.3149L36.5222 60.2021ZM35.1086 60.2961C35.1453 60.3149 35.2004 60.3149 35.2738 60.2961C35.2371 60.2397 35.182 60.2209 35.1086 60.2209V60.2961ZM33.5114 60.4652V60.3524H33.3829V60.4652H33.5114ZM36.0265 60.484C36.1183 60.5403 36.2101 60.5403 36.2835 60.5215V60.4652C36.2835 60.4276 36.2468 60.39 36.1734 60.3712L36.0265 60.4088V60.484ZM35.4574 60.4088V60.5028H35.5308V60.4088H35.4574ZM35.7695 60.5779L35.9164 60.5403C35.8796 60.484 35.8796 60.5028 35.7695 60.4652L35.6961 60.4464L35.7695 60.5779ZM37.0913 60.7282L36.9812 60.8034C37.0362 60.8222 37.0729 60.8409 37.1097 60.8409C37.1464 60.8221 37.1464 60.7658 37.0913 60.7282ZM36.2468 60.7846L36.1734 60.8034L36.2835 61.0664L36.357 61.0476L36.2468 60.7846ZM35.5859 60.8973V60.8034H35.4574V60.8973H35.5859ZM35.5675 61.0664C35.5492 61.0476 35.5492 60.9912 35.5859 60.9349L35.4023 60.9913C35.4023 61.0288 35.439 61.0288 35.4758 61.0288C35.4758 61.0476 35.4941 61.0476 35.5125 61.0476C35.5125 61.0476 35.5308 61.0476 35.5675 61.0664ZM36.7792 61.367C36.8159 61.4234 36.8894 61.4046 36.9995 61.367C36.8526 61.2919 36.7792 61.2355 36.7609 61.1791V61.0852C36.7609 61.0852 36.7608 61.0664 36.7792 61.0664L36.7609 61.0476C36.7058 61.0664 36.6691 61.0852 36.6507 61.0852C36.6323 61.104 36.614 61.104 36.5589 61.1228L36.5222 61.1603L36.4671 61.1979C36.5038 61.1979 36.5405 61.2167 36.5956 61.2167C36.614 61.2167 36.6507 61.2167 36.7058 61.2355C36.7241 61.2919 36.7425 61.3294 36.7792 61.367ZM36.0999 61.2919C36.1734 61.2167 36.1367 61.1791 36.0265 61.1228L36.0999 61.2919ZM36.3937 61.5737C36.4855 61.5549 36.5405 61.5361 36.5589 61.5173C36.5589 61.5173 36.5773 61.5173 36.614 61.4797L36.6507 61.4422L36.6874 61.4234L36.6323 61.2919H36.5589C36.5405 61.2919 36.5038 61.2731 36.4671 61.2543C36.4671 61.2919 36.4855 61.3294 36.5038 61.367C36.5038 61.367 36.5038 61.3858 36.5222 61.3858V61.4234C36.5405 61.4422 36.5405 61.461 36.5222 61.4797C36.5222 61.4985 36.4671 61.5173 36.3937 61.5737ZM32.6118 61.4234V61.2919H32.5017V61.4234H32.6118ZM35.898 61.6488H35.9164V61.6676C35.9714 61.6864 35.9898 61.7052 35.9898 61.7052L36.3937 61.4797C36.3019 61.5173 36.2285 61.5173 36.1917 61.5173C36.1734 61.5361 36.1367 61.5549 36.0632 61.5549C35.9898 61.5737 35.9164 61.5925 35.8613 61.63C35.8796 61.6488 35.898 61.6488 35.898 61.6488ZM37.33 61.4797C37.33 61.5925 37.33 61.6113 37.1464 61.6113L37.1831 61.6864L37.4218 61.4985L37.33 61.4797ZM32.6486 61.63C32.7587 61.5925 32.8138 61.5549 32.8321 61.5361C32.7954 61.5173 32.7403 61.4985 32.6486 61.4985V61.63ZM37.128 61.8555H37.0362L37.0179 61.9494L37.1097 61.9682L37.128 61.8555ZM33.0524 62.0058V61.8931H32.8689V62.0058H33.0524ZM36.6323 62.0998L36.7976 62.0622L36.6691 61.9307L36.5589 62.0434C36.5773 62.0622 36.5956 62.0622 36.5956 62.0622C36.614 62.0622 36.6323 62.0998 36.6323 62.0998ZM36.8894 62.0434C36.8526 62.0998 36.871 62.1185 36.9077 62.1185C36.9444 62.1185 36.9628 62.1185 36.9812 62.0998L36.9628 62.081C36.9444 62.081 36.9261 62.081 36.8894 62.0434ZM37.1831 62.2313L37.2014 62.2125C37.1647 62.2125 37.128 62.1937 37.0913 62.1937C37.0913 62.2125 37.0546 62.2125 37.0362 62.2125H37.0179L36.9444 62.3252V62.344H36.9628L37.0362 62.2313C37.0913 62.2125 37.128 62.2125 37.1831 62.2313ZM37.4218 62.2313H37.4401L37.4218 62.2125C37.385 62.2313 37.3483 62.2688 37.33 62.3064H37.3116L37.33 62.3252C37.3483 62.2876 37.3667 62.2501 37.4218 62.2313ZM36.2101 62.5507C36.2101 62.5507 36.2468 62.5319 36.2835 62.4755L36.0999 62.5131H36.0632C36.0632 62.5131 36.0265 62.5319 35.9898 62.5319C36.0265 62.5695 36.0265 62.6258 35.9898 62.6634C36.0632 62.6634 36.1183 62.6446 36.1367 62.607C36.2285 62.5507 36.2468 62.5319 36.2101 62.5507Z" fill="white"/>
<path d="M44.3231 60.8222C45.4797 60.8222 45.7367 60.127 45.8652 59.3567C45.8836 59.2439 45.9203 59.1124 45.9203 58.9433C45.9387 58.793 45.957 58.5676 45.9754 58.2294C46.0304 57.553 46.0672 56.7827 46.1039 55.9372V55.9184L46.3242 51.4468C46.3425 51.2026 46.4527 51.0899 46.6914 51.0899H48.9494C49.1514 51.0899 49.3166 51.2777 49.3166 51.4844L49.1514 56.0124V57.2524C49.1514 58.173 49.078 59.1312 48.9127 60.033C48.7291 60.9349 48.3803 61.8179 47.7929 62.5131C46.7831 63.678 45.3328 64.0349 43.8641 63.9974C43.038 63.9786 41.9916 63.8471 41.3674 63.2458C40.7432 62.6634 40.4862 61.7804 40.3944 60.9349C40.3026 60.2585 40.321 59.5258 40.321 58.8306C40.3393 57.8536 40.4127 56.8766 40.5045 55.8996L40.9635 51.428C40.9819 51.2026 41.1104 51.0899 41.3307 51.0899H43.5888C43.7907 51.0899 43.9743 51.2965 43.9559 51.5032L43.6071 56.0312L43.4419 58.5112C43.3318 59.7137 43.3868 60.8222 44.3231 60.8222ZM48.8944 51.8038V51.7287C48.8944 51.6723 48.9311 51.4656 48.7659 51.4656C48.6373 51.4656 48.619 51.7099 48.619 51.7474V51.8602C48.6374 51.8977 48.6374 51.9541 48.6374 52.0668V52.2923C48.6557 52.405 48.6557 52.4802 48.6557 52.5178H48.8577C48.8393 52.5178 48.8393 52.5178 48.8393 52.499C48.8393 52.4802 48.8209 52.4802 48.8209 52.4802C48.8209 52.3675 48.8393 52.2547 48.876 52.0668C48.8944 51.9165 48.8944 51.8226 48.8944 51.8038ZM41.0369 53.9081L41.0186 54.5845C41.0186 54.6033 41.0186 54.6033 41.0369 54.622C41.0553 54.622 41.0737 54.6408 41.0737 54.6596C41.092 54.6596 41.1287 54.6408 41.1654 54.5845C41.2022 54.5093 41.2205 54.4342 41.2205 54.359C41.1838 54.3966 41.1655 54.3966 41.1471 54.3966C41.1471 54.3778 41.1287 54.3778 41.1104 54.3778V54.3402C41.1471 54.3214 41.2022 54.2651 41.2389 54.2087L41.349 51.8226H41.2572C41.2205 51.8226 41.2022 51.8414 41.1838 51.8602C41.1838 51.879 41.1471 51.879 41.092 51.879C41.1838 51.9353 41.1838 51.9541 41.2205 52.0856V52.2172C41.2205 52.2735 41.1838 52.3111 41.1471 52.3487C41.1471 52.3487 41.1655 52.4238 41.1471 52.4426C41.1471 52.4614 41.1287 52.4802 41.1104 52.499L41.092 52.7432C41.0737 52.762 41.0553 52.7808 41.0553 52.7996C41.0553 52.8184 41.0737 52.8372 41.0737 52.8559C41.092 52.8747 41.1104 52.8935 41.1104 52.9123C41.092 53.0063 41.0737 53.0626 41.0553 53.119L41.0186 53.2505C41.0186 53.2693 41.0369 53.3069 41.0553 53.3444C41.0737 53.382 41.092 53.4196 41.092 53.4384C41.092 53.4947 41.1104 53.5323 41.1104 53.5699C41.1287 53.6451 41.1287 53.6826 41.1287 53.6826C41.1287 53.7014 41.1104 53.739 41.092 53.7954C41.0553 53.8329 41.0369 53.8705 41.0369 53.9081ZM41.1471 56.2378V56.0124C41.0737 56.0312 41.0369 56.0312 41.0186 56.0312C40.9819 56.0312 40.9635 56.0499 40.9452 56.0499L40.9268 56.1251C40.9635 56.1627 41.0186 56.219 41.1471 56.2378ZM46.9484 56.1439C46.9117 56.1439 46.8749 56.1251 46.8382 56.1251V56.1815C46.8382 56.2003 46.8566 56.219 46.8749 56.219C46.8749 56.219 46.8933 56.219 46.8933 56.2003C46.9117 56.2003 46.9117 56.1627 46.9484 56.1439ZM41.1104 56.7451C41.0002 56.8015 40.9084 56.8578 40.8901 56.9142C40.9084 56.9518 40.9268 56.9706 40.9819 56.9706C41.1287 56.9706 41.1104 56.8391 41.1104 56.7451ZM47.4073 57.9851H47.2788L47.2421 58.0603H47.389C47.4257 58.0415 47.4257 58.0227 47.4073 57.9851ZM47.0585 58.5488C47.0402 58.53 47.0218 58.53 46.9851 58.53H46.9484C46.9484 58.5488 46.93 58.5488 46.9117 58.5488C46.9484 58.5676 46.9667 58.5864 46.9667 58.6051C46.9851 58.6051 47.0034 58.6051 47.0218 58.5864L47.0585 58.5488ZM46.7281 59.9955V59.9579L46.673 59.9955V60.033L46.7281 59.9955ZM46.9667 60.2585L46.9851 60.1834H46.93L46.9117 60.2585H46.9667ZM45.7551 60.7846H45.6266L45.5898 60.8597H45.7551C45.7734 60.8409 45.7734 60.8222 45.7551 60.7846ZM44.6352 61.0288C44.6168 61.0288 44.5985 61.01 44.5618 61.01C44.5067 61.01 44.4149 60.9913 44.2497 60.9913C44.213 61.0288 44.1946 61.0476 44.1946 61.0664C44.2497 61.2167 44.3415 61.1791 44.4333 61.1791C44.5434 61.1791 44.5618 61.1791 44.6352 61.0288ZM45.186 61.0288L45.1309 61.01L45.1125 61.0664L45.1492 61.0852L45.186 61.0288ZM45.1676 61.3482H45.1125L45.0942 61.6864H45.1125L45.1676 61.3482ZM43.8825 61.6113L44.0844 61.5925C44.0477 61.4985 43.9559 61.461 43.9376 61.4422C43.9009 61.4797 43.8641 61.4985 43.8641 61.5361C43.8825 61.5737 43.8825 61.5737 43.8825 61.6113Z" fill="white"/>
<path d="M58.5961 53.8517L56.0994 53.9457L55.9525 59.4694C55.8974 59.4694 55.8423 59.507 55.8056 59.5633C55.8791 59.6009 55.8791 59.6197 55.9341 59.6197H55.9525L55.9341 60.0706H55.8791C55.8607 60.0894 55.8423 60.1082 55.8056 60.1082C55.7689 60.127 55.7322 60.1458 55.7138 60.1458C55.7505 60.2021 55.7689 60.2585 55.7689 60.2961V60.3524L55.7322 60.39H55.7138C55.7138 60.4088 55.6955 60.4276 55.6955 60.4464L55.7505 60.6343L55.7873 60.8034C55.7873 60.8222 55.7689 60.8597 55.7322 60.8973C55.6955 60.9349 55.6771 60.9537 55.6771 60.9725C55.6771 60.9912 55.6955 61.01 55.6955 61.0476L55.7322 61.104C55.7505 61.1416 55.7505 61.1791 55.7322 61.2167C55.7138 61.3106 55.7322 61.367 55.7873 61.367H55.8974L55.8791 61.4797C55.8791 61.4797 55.8607 61.4422 55.824 61.4046C55.8056 61.4609 55.7689 61.4797 55.7322 61.4797C55.6955 61.4797 55.6588 61.4797 55.622 61.4985C55.622 61.4985 55.6037 61.4985 55.6037 61.5173H55.5853V61.5549C55.5853 61.5925 55.6037 61.5925 55.622 61.5925C55.6404 61.5925 55.6588 61.5737 55.7138 61.5737C55.7322 61.5737 55.7505 61.5925 55.7689 61.5925V61.63C55.7689 61.6488 55.7505 61.6864 55.7322 61.7052C55.7138 61.7428 55.6955 61.7804 55.6955 61.8179C55.7322 61.8367 55.7689 61.8367 55.7873 61.8367L55.8423 61.8743C55.8791 61.9119 55.8423 61.9494 55.7873 61.9682C55.7138 61.987 55.6771 62.0058 55.6771 62.0246C55.7505 62.081 55.7689 62.1185 55.7689 62.1373C55.7689 62.1749 55.7322 62.2125 55.6588 62.2313C55.6588 62.2688 55.6771 62.3064 55.6955 62.3252C55.6955 62.3628 55.7322 62.3816 55.7689 62.4004C55.7322 62.4192 55.7322 62.4379 55.7138 62.4379C55.6955 62.4567 55.6771 62.4567 55.6771 62.4755C55.6771 62.5319 55.6771 62.5695 55.6955 62.607C55.7138 62.6634 55.7138 62.7198 55.7138 62.7573C55.7138 62.7573 55.6588 62.8325 55.6588 62.8701C55.6588 62.8889 55.6771 62.9264 55.7138 62.964C55.7505 63.0016 55.7689 63.0204 55.7689 63.0392C55.7689 63.0767 55.7505 63.1143 55.7138 63.1519C55.6771 63.2083 55.6588 63.2458 55.6588 63.2646C55.6588 63.3022 55.7322 63.4337 55.824 63.4337H55.8423L55.824 63.5652C55.824 63.8095 55.6955 63.9222 55.4752 63.941L52.9784 63.9974C52.7765 63.9974 52.5745 63.8095 52.6112 63.6028L52.6847 60.5967C52.6847 60.5779 52.703 60.5779 52.703 60.5779H52.6847L52.7581 58.267L52.8315 58.3045C52.8499 58.3045 52.8683 58.3045 52.8683 58.2857V58.2482C52.8315 58.2294 52.7948 58.2294 52.7581 58.2482L52.8683 54.2275L50.3348 54.716C50.0961 54.7723 49.8942 54.6033 49.8942 54.3402L50.0043 51.5032C50.0227 51.259 50.1329 51.1462 50.3715 51.1274L58.6145 50.9583C58.8348 50.9583 59 51.1274 59 51.3529L58.9449 53.476C58.9266 53.7202 58.8164 53.8329 58.5961 53.8517ZM51.5097 53.119H51.3996V53.1753H51.5097V53.119ZM53.1069 53.1753H53.0151V53.2505H53.1069V53.1753ZM51.0324 53.2881L50.9223 53.2129H50.8121C50.757 53.2881 50.7387 53.3444 50.7754 53.4008C50.8121 53.4008 50.8855 53.4008 50.959 53.4384L51.0324 53.3632V53.2881ZM52.5011 53.2129V53.3257C52.5378 53.3444 52.5562 53.3444 52.5745 53.3444L52.5929 53.3257H52.6296C52.648 53.3257 52.648 53.2881 52.648 53.2693V53.2129H52.5011ZM50.1512 53.2881H49.986V53.3444H50.1512V53.2881ZM51.3629 53.2881C51.2894 53.2881 51.2527 53.3069 51.216 53.3444C51.1793 53.382 51.1426 53.4196 51.1058 53.4384C51.1242 53.476 51.1793 53.476 51.216 53.4947C51.2344 53.5135 51.2711 53.5135 51.3262 53.476C51.2894 53.4384 51.3078 53.4008 51.3629 53.382C51.3629 53.3632 51.3812 53.3632 51.3996 53.3444C51.4363 53.3444 51.4363 53.3257 51.473 53.3257C51.4363 53.3069 51.4179 53.3069 51.3996 53.2881H51.3629ZM50.8305 53.4384V53.5135L51.0691 53.476L50.8305 53.4384ZM51.5832 53.6075H51.5097L51.473 53.5887H51.4363C51.3629 53.6826 51.3262 53.7578 51.5097 53.7766L51.5832 53.739V53.6075ZM52.8683 53.6638H52.8132C52.8132 53.7014 52.8315 53.739 52.8866 53.7766C52.9233 53.739 52.9417 53.7014 52.9417 53.6451C52.905 53.6451 52.8866 53.6638 52.8683 53.6638ZM51.0141 53.7578H50.9039V53.8329H51.0141V53.7578ZM52.1706 53.8517V53.7954C52.0605 53.7766 51.9871 53.7578 51.9136 53.7578C51.8402 53.7578 51.8035 53.7954 51.7668 53.8705C51.8035 53.8705 51.8402 53.8705 51.8769 53.8893H51.932C51.9503 53.9081 51.9687 53.9081 51.9871 53.9081C52.0972 53.9269 52.1523 53.9081 52.1706 53.8517ZM53.2721 59.2627L53.2354 59.1876L53.1987 59.2252L53.1436 59.2627L53.1804 59.2815V59.3003L53.2721 59.2627ZM55.2549 59.413H55.1447V59.4506C55.1631 59.4506 55.1814 59.4694 55.1814 59.4694C55.1814 59.4694 55.1814 59.4506 55.1998 59.4506C55.2182 59.4506 55.2182 59.4506 55.2549 59.413ZM53.3089 59.8076C53.3089 59.77 53.2905 59.7512 53.2354 59.7324C53.1987 59.7512 53.1804 59.7136 53.1804 59.6385C53.0886 59.7888 52.9968 59.9391 53.0518 60.1082L53.0335 60.1646C53.0151 60.1646 53.0151 60.1834 53.0151 60.2021C53.0151 60.2397 53.0335 60.2585 53.0518 60.2773L52.9968 60.3337C52.9784 60.3524 52.9601 60.3524 52.9601 60.39C52.9601 60.39 52.9784 60.4276 53.0151 60.4464C53.0519 60.484 53.0702 60.5028 53.0702 60.5215C53.0702 60.5591 53.0518 60.6155 52.9968 60.6906V60.8222C53.0151 60.8409 53.0151 60.8973 52.9968 60.9913L52.9601 61.4046C52.9601 61.4609 52.9417 61.5361 52.9417 61.6113C52.9601 61.63 52.9784 61.63 52.9968 61.63C53.0151 61.6488 53.0518 61.6488 53.0702 61.6676C53.1436 61.6864 53.1804 61.6864 53.1987 61.6864C53.2171 61.6864 53.2354 61.6864 53.2538 61.6676L53.2721 61.6488C53.2721 61.63 53.2538 61.6113 53.2354 61.6113C53.1987 61.5925 53.1987 61.5737 53.1804 61.5549C53.2354 61.5549 53.2538 61.5361 53.2905 61.4797C53.2171 61.4422 53.2171 61.3858 53.2354 61.3294C53.2538 61.2543 53.2354 61.1416 53.2354 60.9913C53.2171 60.9913 53.1987 60.9725 53.1987 60.9725C53.2722 60.9349 53.2905 60.8973 53.2905 60.8409L53.2354 60.7282C53.2171 60.6531 53.1987 60.5967 53.1987 60.5403C53.1987 60.5027 53.1804 60.4464 53.1987 60.4088C53.1987 60.3524 53.1804 60.3337 53.162 60.3149C53.2171 60.2961 53.2721 60.1082 53.2721 60.0518L53.2905 59.8827L53.3089 59.8076ZM55.9158 60.4088V60.4652H55.8974C55.8791 60.4464 55.8974 60.4276 55.8974 60.4276C55.9158 60.4276 55.9158 60.4276 55.9158 60.4088ZM55.5486 61.1416H55.4935C55.4752 61.1416 55.4568 61.1416 55.4385 61.1228V61.1791L55.5119 61.1979C55.5486 61.1791 55.5486 61.1791 55.5486 61.1416ZM53.2171 62.5319L53.1804 61.7616C53.162 61.7616 53.1436 61.7428 53.1253 61.7428C53.0886 61.724 53.0886 61.7052 53.0702 61.7052C53.0151 61.7428 52.905 61.8931 52.9233 61.9307C52.9233 61.9494 52.9233 61.987 52.9417 62.0246C52.9601 62.0434 52.9601 62.0622 52.9601 62.0998C52.9417 62.2125 52.9417 62.2876 52.9417 62.3252C52.9417 62.344 52.9233 62.3628 52.9233 62.3628C52.9233 62.3816 52.9233 62.4004 52.905 62.4192C52.9417 62.4755 52.9417 62.5131 52.9233 62.5131C52.905 62.5131 52.8866 62.5131 52.8866 62.5319C52.8866 62.5882 52.8866 62.6258 52.9233 62.6446C52.9233 62.6634 52.9601 62.7385 53.0151 62.8137C53.0335 62.8137 53.0702 62.7949 53.1069 62.7949C53.1436 62.7385 53.162 62.6822 53.162 62.6258C53.1253 62.5695 53.162 62.5507 53.2171 62.5319Z" fill="white"/>
</svg>
